%TF.GenerationSoftware,Altium Limited,Altium Designer,23.10.1 (27)*%
G04 Layer_Color=8421504*
%FSLAX45Y45*%
%MOMM*%
%TF.SameCoordinates,69DA4DD4-9858-4DDA-A9D3-A0AF371EC053*%
%TF.FilePolarity,Positive*%
%TF.FileFunction,Paste,Top*%
%TF.Part,Single*%
G01*
G75*
%TA.AperFunction,SMDPad,CuDef*%
%ADD11R,0.55000X0.55000*%
%ADD12R,0.57213X1.50524*%
G04:AMPARAMS|DCode=13|XSize=1.50524mm|YSize=0.57213mm|CornerRadius=0.28606mm|HoleSize=0mm|Usage=FLASHONLY|Rotation=270.000|XOffset=0mm|YOffset=0mm|HoleType=Round|Shape=RoundedRectangle|*
%AMROUNDEDRECTD13*
21,1,1.50524,0.00000,0,0,270.0*
21,1,0.93311,0.57213,0,0,270.0*
1,1,0.57213,0.00000,-0.46655*
1,1,0.57213,0.00000,0.46655*
1,1,0.57213,0.00000,0.46655*
1,1,0.57213,0.00000,-0.46655*
%
%ADD13ROUNDEDRECTD13*%
%ADD14R,3.80000X2.03000*%
%ADD15R,0.55000X0.55000*%
%ADD16R,0.90000X0.95000*%
%ADD17R,0.80000X0.90000*%
%ADD18R,0.72000X0.72000*%
%ADD19P,1.01824X4X180.0*%
%ADD20R,0.72000X0.72000*%
%ADD21P,1.01824X4X90.0*%
G04:AMPARAMS|DCode=22|XSize=1.46395mm|YSize=0.37583mm|CornerRadius=0.18791mm|HoleSize=0mm|Usage=FLASHONLY|Rotation=0.000|XOffset=0mm|YOffset=0mm|HoleType=Round|Shape=RoundedRectangle|*
%AMROUNDEDRECTD22*
21,1,1.46395,0.00000,0,0,0.0*
21,1,1.08813,0.37583,0,0,0.0*
1,1,0.37583,0.54406,0.00000*
1,1,0.37583,-0.54406,0.00000*
1,1,0.37583,-0.54406,0.00000*
1,1,0.37583,0.54406,0.00000*
%
%ADD22ROUNDEDRECTD22*%
%ADD23R,1.46395X0.37583*%
%ADD24R,0.45000X1.00000*%
%ADD25R,1.00000X1.40000*%
%ADD26R,1.50000X0.90000*%
%ADD27R,0.90000X1.50000*%
G04:AMPARAMS|DCode=28|XSize=1.5mm|YSize=0.9mm|CornerRadius=0mm|HoleSize=0mm|Usage=FLASHONLY|Rotation=225.000|XOffset=0mm|YOffset=0mm|HoleType=Round|Shape=Rectangle|*
%AMROTATEDRECTD28*
4,1,4,0.21213,0.84853,0.84853,0.21213,-0.21213,-0.84853,-0.84853,-0.21213,0.21213,0.84853,0.0*
%
%ADD28ROTATEDRECTD28*%

G04:AMPARAMS|DCode=29|XSize=1.5mm|YSize=0.9mm|CornerRadius=0mm|HoleSize=0mm|Usage=FLASHONLY|Rotation=135.000|XOffset=0mm|YOffset=0mm|HoleType=Round|Shape=Rectangle|*
%AMROTATEDRECTD29*
4,1,4,0.84853,-0.21213,0.21213,-0.84853,-0.84853,0.21213,-0.21213,0.84853,0.84853,-0.21213,0.0*
%
%ADD29ROTATEDRECTD29*%

G36*
X3008000Y7321001D02*
X3008000D01*
X3008000D01*
D01*
D02*
G37*
G36*
X3088000Y7321000D02*
X3087891Y7317172D01*
X3086184Y7309706D01*
X3083052Y7302717D01*
X3078618Y7296473D01*
X3073050Y7291215D01*
X3066564Y7287143D01*
X3059407Y7284415D01*
X3051856Y7283136D01*
X3048029Y7283245D01*
X3048029Y7283244D01*
X3044199Y7283132D01*
X3036641Y7284407D01*
X3029477Y7287132D01*
X3022983Y7291202D01*
X3017407Y7296461D01*
X3012965Y7302707D01*
X3009826Y7309699D01*
X3008112Y7317170D01*
X3008000Y7321001D01*
X3088000Y7321000D01*
D02*
G37*
G36*
X3059360Y7377593D02*
X3066524Y7374868D01*
X3073018Y7370798D01*
X3078594Y7365539D01*
X3083037Y7359293D01*
X3086175Y7352301D01*
X3087888Y7344830D01*
X3088000Y7341000D01*
X3047972Y7341059D01*
X3008000Y7341000D01*
X3008109Y7344828D01*
X3009817Y7352294D01*
X3012948Y7359283D01*
X3017382Y7365527D01*
X3022950Y7370786D01*
X3029437Y7374857D01*
X3036593Y7377585D01*
X3044144Y7378864D01*
X3047972Y7378755D01*
X3051802Y7378867D01*
X3059360Y7377593D01*
D02*
G37*
G36*
X3088000Y7341000D02*
Y7340999D01*
Y7341000D01*
D01*
D02*
G37*
G36*
X3262000Y7321001D02*
X3262000D01*
X3262000D01*
D01*
D02*
G37*
G36*
X3342000Y7321000D02*
X3341891Y7317172D01*
X3340184Y7309706D01*
X3337052Y7302717D01*
X3332618Y7296473D01*
X3327050Y7291215D01*
X3320564Y7287143D01*
X3313407Y7284415D01*
X3305856Y7283136D01*
X3302029Y7283245D01*
X3302029Y7283244D01*
X3298199Y7283132D01*
X3290641Y7284407D01*
X3283477Y7287132D01*
X3276983Y7291202D01*
X3271407Y7296461D01*
X3266965Y7302707D01*
X3263826Y7309699D01*
X3262112Y7317170D01*
X3262000Y7321001D01*
X3342000Y7321000D01*
D02*
G37*
G36*
X3313360Y7377593D02*
X3320524Y7374868D01*
X3327018Y7370798D01*
X3332594Y7365539D01*
X3337037Y7359293D01*
X3340175Y7352301D01*
X3341888Y7344830D01*
X3342000Y7341000D01*
X3301972Y7341059D01*
X3262000Y7341000D01*
X3262109Y7344828D01*
X3263817Y7352294D01*
X3266948Y7359283D01*
X3271382Y7365527D01*
X3276950Y7370786D01*
X3283437Y7374857D01*
X3290593Y7377585D01*
X3298144Y7378864D01*
X3301972Y7378755D01*
X3305802Y7378867D01*
X3313360Y7377593D01*
D02*
G37*
G36*
X3342000Y7341000D02*
Y7340999D01*
Y7341000D01*
D01*
D02*
G37*
D11*
X3003000Y6794500D02*
D03*
X3093000D02*
D03*
X2178600Y3454400D02*
D03*
X2088600D02*
D03*
X1975400D02*
D03*
X1885400D02*
D03*
D12*
X2000000Y6968048D02*
D03*
X1492000D02*
D03*
D13*
X1905000D02*
D03*
X1810000D02*
D03*
Y6747952D02*
D03*
X2000000D02*
D03*
X1397000Y6968048D02*
D03*
X1302000D02*
D03*
Y6747952D02*
D03*
X1492000D02*
D03*
D14*
X3619500Y6794500D02*
D03*
D15*
X1714500Y5752000D02*
D03*
Y5842000D02*
D03*
X2984500Y6114500D02*
D03*
Y6204500D02*
D03*
X1066800Y2037800D02*
D03*
Y2127800D02*
D03*
X1714500Y5424000D02*
D03*
Y5334000D02*
D03*
X2540000Y5117000D02*
D03*
Y5207000D02*
D03*
Y5424000D02*
D03*
Y5334000D02*
D03*
X2413000Y5207000D02*
D03*
Y5117000D02*
D03*
Y5334000D02*
D03*
Y5424000D02*
D03*
X3111500Y5860500D02*
D03*
Y5950500D02*
D03*
X2857500Y5860500D02*
D03*
Y5950500D02*
D03*
D16*
X2699000Y5336000D02*
D03*
X2794000Y5586000D02*
D03*
X2889000Y5336000D02*
D03*
X3080000D02*
D03*
X3175000Y5586000D02*
D03*
X3270000Y5336000D02*
D03*
X2127000Y3300000D02*
D03*
X2032000Y3050000D02*
D03*
X1937000Y3300000D02*
D03*
D17*
X1460500Y5434000D02*
D03*
X1555500Y5234000D02*
D03*
X1365500D02*
D03*
X1460500Y5742000D02*
D03*
X1365500Y5942000D02*
D03*
X1555500D02*
D03*
D18*
X3657600Y2439200D02*
D03*
Y2539200D02*
D03*
X406400Y2132800D02*
D03*
Y2032800D02*
D03*
X2768600Y6831800D02*
D03*
Y6731800D02*
D03*
D19*
X3266645Y1234645D02*
D03*
X3337355Y1305355D02*
D03*
D20*
X2185200Y660400D02*
D03*
X2285200D02*
D03*
X1955000Y6540500D02*
D03*
X1855000D02*
D03*
X1447000D02*
D03*
X1347000D02*
D03*
X2312200Y5816600D02*
D03*
X2412200D02*
D03*
D21*
X980645Y1051355D02*
D03*
X1051355Y980645D02*
D03*
D22*
X2558510Y6923000D02*
D03*
Y6858000D02*
D03*
Y6793000D02*
D03*
X2394490D02*
D03*
Y6858000D02*
D03*
X2476500Y6034000D02*
D03*
Y6099000D02*
D03*
X2312481D02*
D03*
Y5969000D02*
D03*
D23*
X2394490Y6923000D02*
D03*
X2476500Y5969000D02*
D03*
D24*
X3113000Y7143500D02*
D03*
X3048000D02*
D03*
X2983000D02*
D03*
Y6953500D02*
D03*
X3113000D02*
D03*
D25*
X1746000Y7366000D02*
D03*
X1556000D02*
D03*
D26*
X2251600Y825600D02*
D03*
Y1155600D02*
D03*
X1761600D02*
D03*
Y825600D02*
D03*
D27*
X3492400Y2505600D02*
D03*
X3162400D02*
D03*
Y2015600D02*
D03*
X3492400Y2015600D02*
D03*
X571600Y2066400D02*
D03*
X901600D02*
D03*
Y2556400D02*
D03*
X571600Y2556400D02*
D03*
D28*
X3219939Y1408622D02*
D03*
X2986594Y1641967D02*
D03*
X2640112Y1295485D02*
D03*
X2873457Y1062140D02*
D03*
D29*
X1148769Y1107086D02*
D03*
X1382114Y1340431D02*
D03*
X1035631Y1686914D02*
D03*
X802286Y1453568D02*
D03*
%TF.MD5,9d4fafc94320f12f54e0902121e97d32*%
M02*
