%TF.GenerationSoftware,Altium Limited,Altium Designer,23.10.1 (27)*%
G04 Layer_Physical_Order=1*
G04 Layer_Color=255*
%FSLAX45Y45*%
%MOMM*%
%TF.SameCoordinates,3DF52466-FF79-41BE-B245-B35B28900F9A*%
%TF.FilePolarity,Positive*%
%TF.FileFunction,Copper,L1,Top,Signal*%
%TF.Part,Single*%
G01*
G75*
%TA.AperFunction,SMDPad,CuDef*%
%ADD10C,1.00000*%
%ADD11R,0.55000X0.55000*%
%ADD12R,0.57213X1.50524*%
G04:AMPARAMS|DCode=13|XSize=1.50524mm|YSize=0.57213mm|CornerRadius=0.28606mm|HoleSize=0mm|Usage=FLASHONLY|Rotation=270.000|XOffset=0mm|YOffset=0mm|HoleType=Round|Shape=RoundedRectangle|*
%AMROUNDEDRECTD13*
21,1,1.50524,0.00000,0,0,270.0*
21,1,0.93311,0.57213,0,0,270.0*
1,1,0.57213,0.00000,-0.46655*
1,1,0.57213,0.00000,0.46655*
1,1,0.57213,0.00000,0.46655*
1,1,0.57213,0.00000,-0.46655*
%
%ADD13ROUNDEDRECTD13*%
%ADD14R,3.80000X2.03000*%
%ADD15R,0.55000X0.55000*%
%ADD16R,0.90000X0.95000*%
%ADD17R,0.80000X0.90000*%
%ADD18R,0.72000X0.72000*%
%ADD19P,1.01824X4X180.0*%
%ADD20R,0.72000X0.72000*%
%ADD21P,1.01824X4X90.0*%
G04:AMPARAMS|DCode=22|XSize=1.46395mm|YSize=0.37583mm|CornerRadius=0.18791mm|HoleSize=0mm|Usage=FLASHONLY|Rotation=0.000|XOffset=0mm|YOffset=0mm|HoleType=Round|Shape=RoundedRectangle|*
%AMROUNDEDRECTD22*
21,1,1.46395,0.00000,0,0,0.0*
21,1,1.08813,0.37583,0,0,0.0*
1,1,0.37583,0.54406,0.00000*
1,1,0.37583,-0.54406,0.00000*
1,1,0.37583,-0.54406,0.00000*
1,1,0.37583,0.54406,0.00000*
%
%ADD22ROUNDEDRECTD22*%
%ADD23R,1.46395X0.37583*%
%ADD24R,0.45000X1.00000*%
%ADD25R,1.00000X1.40000*%
%ADD26R,1.50000X0.90000*%
%ADD27R,0.90000X1.50000*%
G04:AMPARAMS|DCode=28|XSize=1.5mm|YSize=0.9mm|CornerRadius=0mm|HoleSize=0mm|Usage=FLASHONLY|Rotation=225.000|XOffset=0mm|YOffset=0mm|HoleType=Round|Shape=Rectangle|*
%AMROTATEDRECTD28*
4,1,4,0.21213,0.84853,0.84853,0.21213,-0.21213,-0.84853,-0.84853,-0.21213,0.21213,0.84853,0.0*
%
%ADD28ROTATEDRECTD28*%

G04:AMPARAMS|DCode=29|XSize=1.5mm|YSize=0.9mm|CornerRadius=0mm|HoleSize=0mm|Usage=FLASHONLY|Rotation=135.000|XOffset=0mm|YOffset=0mm|HoleType=Round|Shape=Rectangle|*
%AMROTATEDRECTD29*
4,1,4,0.84853,-0.21213,0.21213,-0.84853,-0.84853,0.21213,-0.21213,0.84853,0.84853,-0.21213,0.0*
%
%ADD29ROTATEDRECTD29*%

%TA.AperFunction,Conductor*%
%ADD30C,0.25400*%
%ADD31C,0.76200*%
%ADD32C,0.50800*%
%TA.AperFunction,ComponentPad*%
%ADD33C,2.15000*%
%ADD34R,2.15000X2.15000*%
%ADD35C,5.80000*%
%ADD36R,1.35000X1.35000*%
%ADD37C,1.35000*%
%ADD38R,1.40000X1.40000*%
%ADD39C,1.40000*%
%TA.AperFunction,ViaPad*%
%ADD40C,0.60960*%
G36*
X3974044Y8793679D02*
X3997157Y8784106D01*
X4017958Y8770207D01*
X4035647Y8752518D01*
X4049546Y8731717D01*
X4059119Y8708604D01*
X4064000Y8684068D01*
Y8671560D01*
Y127000D01*
Y114492D01*
X4059119Y89955D01*
X4049546Y66843D01*
X4035647Y46042D01*
X4017958Y28352D01*
X3997157Y14454D01*
X3974044Y4880D01*
X3949508Y0D01*
X114492D01*
X89955Y4880D01*
X66843Y14454D01*
X46042Y28352D01*
X28352Y46042D01*
X14454Y66843D01*
X4880Y89955D01*
X0Y114492D01*
Y127000D01*
Y8671560D01*
Y8684068D01*
X4880Y8708604D01*
X14454Y8731717D01*
X28352Y8752518D01*
X46042Y8770207D01*
X66843Y8784106D01*
X89955Y8793679D01*
X114492Y8798560D01*
X3949508D01*
X3974044Y8793679D01*
D02*
G37*
%LPC*%
G36*
X3584822Y8615400D02*
X3535178D01*
X3486144Y8607634D01*
X3438928Y8592292D01*
X3394694Y8569754D01*
X3354531Y8540573D01*
X3319426Y8505469D01*
X3290246Y8465306D01*
X3267707Y8421072D01*
X3252366Y8373856D01*
X3244600Y8324822D01*
Y8275178D01*
X3252366Y8226144D01*
X3267707Y8178928D01*
X3290246Y8134694D01*
X3319426Y8094531D01*
X3354531Y8059426D01*
X3394694Y8030246D01*
X3438928Y8007707D01*
X3486144Y7992366D01*
X3535178Y7984600D01*
X3584822D01*
X3633856Y7992366D01*
X3681072Y8007707D01*
X3725306Y8030246D01*
X3765469Y8059426D01*
X3800574Y8094531D01*
X3829754Y8134694D01*
X3852293Y8178928D01*
X3867634Y8226144D01*
X3875400Y8275178D01*
Y8324822D01*
X3867634Y8373856D01*
X3852293Y8421072D01*
X3829754Y8465306D01*
X3800574Y8505469D01*
X3765469Y8540573D01*
X3725306Y8569754D01*
X3681072Y8592292D01*
X3633856Y8607634D01*
X3584822Y8615400D01*
D02*
G37*
G36*
X524822D02*
X475178D01*
X426144Y8607634D01*
X378928Y8592292D01*
X334694Y8569754D01*
X294531Y8540573D01*
X259426Y8505469D01*
X230246Y8465306D01*
X207707Y8421072D01*
X192366Y8373856D01*
X184600Y8324822D01*
Y8275178D01*
X192366Y8226144D01*
X207707Y8178928D01*
X230246Y8134694D01*
X259426Y8094531D01*
X294531Y8059426D01*
X334694Y8030246D01*
X378928Y8007707D01*
X426144Y7992366D01*
X475178Y7984600D01*
X524822D01*
X573856Y7992366D01*
X621072Y8007707D01*
X665306Y8030246D01*
X705469Y8059426D01*
X740574Y8094531D01*
X769754Y8134694D01*
X792293Y8178928D01*
X807634Y8226144D01*
X815400Y8275178D01*
Y8324822D01*
X807634Y8373856D01*
X792293Y8421072D01*
X769754Y8465306D01*
X740574Y8505469D01*
X705469Y8540573D01*
X665306Y8569754D01*
X621072Y8592292D01*
X573856Y8607634D01*
X524822Y8615400D01*
D02*
G37*
G36*
X2049497Y7886300D02*
X2044700D01*
Y7766100D01*
X2164900D01*
Y7770897D01*
X2155843Y7804698D01*
X2138346Y7835003D01*
X2113603Y7859747D01*
X2083298Y7877243D01*
X2049497Y7886300D01*
D02*
G37*
G36*
X2019300D02*
X2014503D01*
X1980702Y7877243D01*
X1950397Y7859747D01*
X1925654Y7835003D01*
X1908157Y7804698D01*
X1899100Y7770897D01*
Y7766100D01*
X2019300D01*
Y7886300D01*
D02*
G37*
G36*
X2164900Y7740700D02*
X2044700D01*
Y7620500D01*
X2049497D01*
X2083298Y7629557D01*
X2113603Y7647054D01*
X2138346Y7671797D01*
X2155843Y7702102D01*
X2164900Y7735904D01*
Y7740700D01*
D02*
G37*
G36*
X2019300D02*
X1899100D01*
Y7735904D01*
X1908157Y7702102D01*
X1925654Y7671797D01*
X1950397Y7647054D01*
X1980702Y7629557D01*
X2014503Y7620500D01*
X2019300D01*
Y7740700D01*
D02*
G37*
G36*
X1733300Y7461400D02*
X1670600D01*
Y7378700D01*
X1733300D01*
Y7461400D01*
D02*
G37*
G36*
X1878801Y7418148D02*
Y7375624D01*
X1921325D01*
X1913474Y7394578D01*
X1897755Y7410297D01*
X1878801Y7418148D01*
D02*
G37*
G36*
X1921325Y7350224D02*
X1878801D01*
Y7307700D01*
X1897755Y7315551D01*
X1913474Y7331271D01*
X1921325Y7350224D01*
D02*
G37*
G36*
X1821400Y7461400D02*
X1758700D01*
Y7366000D01*
X1746000D01*
D01*
X1758700D01*
Y7270600D01*
X1821400D01*
Y7312006D01*
X1833133Y7316866D01*
X1834448Y7315551D01*
X1853401Y7307700D01*
Y7362924D01*
Y7418148D01*
X1834448Y7410297D01*
X1833133Y7408982D01*
X1821400Y7413842D01*
Y7461400D01*
D02*
G37*
G36*
X1561301Y7227648D02*
Y7185124D01*
X1603825D01*
X1595974Y7204078D01*
X1580255Y7219797D01*
X1561301Y7227648D01*
D02*
G37*
G36*
X1535901D02*
X1516948Y7219797D01*
X1501229Y7204078D01*
X1493378Y7185124D01*
X1535901D01*
Y7227648D01*
D02*
G37*
G36*
X2424901Y7202248D02*
Y7159724D01*
X2467425D01*
X2459574Y7178678D01*
X2443855Y7194397D01*
X2424901Y7202248D01*
D02*
G37*
G36*
X2399501D02*
X2380548Y7194397D01*
X2364829Y7178678D01*
X2356978Y7159724D01*
X2399501D01*
Y7202248D01*
D02*
G37*
G36*
X2970300Y7218900D02*
X2935100D01*
Y7156200D01*
X2970300D01*
Y7218900D01*
D02*
G37*
G36*
X1603825Y7159724D02*
X1561301D01*
Y7117200D01*
X1580255Y7125051D01*
X1595974Y7140771D01*
X1603825Y7159724D01*
D02*
G37*
G36*
X1535901D02*
X1493378D01*
X1501229Y7140771D01*
X1516948Y7125051D01*
X1535901Y7117200D01*
Y7159724D01*
D02*
G37*
G36*
X2970300Y7130800D02*
X2935100D01*
Y7068100D01*
X2970300D01*
Y7130800D01*
D02*
G37*
G36*
X1549497Y7886300D02*
X1514503D01*
X1480702Y7877243D01*
X1450397Y7859747D01*
X1425653Y7835003D01*
X1408157Y7804698D01*
X1399100Y7770897D01*
Y7735904D01*
X1408157Y7702102D01*
X1425653Y7671797D01*
X1450397Y7647054D01*
X1480702Y7629557D01*
X1491256Y7626729D01*
Y7461400D01*
X1480600D01*
Y7325537D01*
X1274531Y7119468D01*
X1266110Y7106866D01*
X1263153Y7092000D01*
Y7053700D01*
X1263063Y7053640D01*
X1251127Y7035776D01*
X1246935Y7014704D01*
Y6921393D01*
X1251127Y6900321D01*
X1263063Y6882456D01*
X1280928Y6870520D01*
X1302000Y6866328D01*
X1323072Y6870520D01*
X1340937Y6882456D01*
X1343150Y6885769D01*
X1355850D01*
X1358063Y6882456D01*
X1375928Y6870520D01*
X1384300Y6868854D01*
Y6968048D01*
Y7067242D01*
X1375928Y7065577D01*
X1358064Y7053640D01*
X1345319Y7057426D01*
X1340846Y7062074D01*
Y7075909D01*
X1535537Y7270600D01*
X1576463D01*
X1771153Y7075910D01*
Y7053700D01*
X1771063Y7053640D01*
X1759127Y7035776D01*
X1754935Y7014704D01*
Y6928563D01*
X1742235Y6923302D01*
X1670021Y6995517D01*
X1657418Y7003938D01*
X1642552Y7006895D01*
X1546007D01*
Y7068710D01*
X1437994D01*
Y7067540D01*
X1425294Y7060752D01*
X1418072Y7065577D01*
X1409700Y7067242D01*
Y6968048D01*
Y6868855D01*
X1418072Y6870520D01*
X1425294Y6875345D01*
X1437994Y6868556D01*
Y6867387D01*
X1546007D01*
Y6929202D01*
X1626461D01*
X1725132Y6830531D01*
X1737734Y6822111D01*
X1748035Y6820062D01*
X1752988Y6818105D01*
X1757292Y6806453D01*
X1754935Y6794607D01*
Y6760652D01*
X1810000D01*
X1865065D01*
Y6794607D01*
X1862708Y6806453D01*
X1872663Y6819153D01*
X1937337D01*
X1947292Y6806453D01*
X1944935Y6794607D01*
Y6779839D01*
X1940184Y6772728D01*
X1935256Y6747952D01*
Y6648589D01*
X1909219Y6622552D01*
X1895419Y6601900D01*
X1867700D01*
Y6540500D01*
Y6479100D01*
X1890256D01*
Y6090358D01*
X1877758Y6077861D01*
X1875897Y6077362D01*
X1858703Y6067435D01*
X1844665Y6053397D01*
X1834738Y6036203D01*
X1829600Y6017027D01*
Y5997173D01*
X1834738Y5977997D01*
X1844665Y5960803D01*
X1858703Y5946765D01*
X1875897Y5936838D01*
X1895073Y5931700D01*
X1914927D01*
X1934103Y5936838D01*
X1951297Y5946765D01*
X1965335Y5960803D01*
X1975262Y5977997D01*
X1980400Y5997173D01*
Y5997378D01*
X2000781Y6017759D01*
X2014816Y6038764D01*
X2019744Y6063540D01*
Y6549954D01*
X2039681Y6569891D01*
X2041752Y6572990D01*
X2045781Y6577019D01*
X2059816Y6598024D01*
X2064744Y6622800D01*
Y6747952D01*
X2060497Y6769306D01*
X2071697Y6776066D01*
X2098368Y6749395D01*
X2086227Y6737253D01*
X2078376Y6718300D01*
X2133600D01*
Y6705600D01*
X2146300D01*
Y6650376D01*
X2165253Y6658227D01*
X2170953Y6663927D01*
X2183653Y6658667D01*
Y6605136D01*
X2176203Y6600835D01*
X2162165Y6586797D01*
X2152238Y6569603D01*
X2147100Y6550427D01*
Y6530573D01*
X2152238Y6511397D01*
X2162165Y6494203D01*
X2176203Y6480165D01*
X2193397Y6470238D01*
X2212573Y6465100D01*
X2232427D01*
X2251603Y6470238D01*
X2268797Y6480165D01*
X2282835Y6494203D01*
X2292762Y6511397D01*
X2297900Y6530573D01*
Y6550427D01*
X2292762Y6569603D01*
X2282835Y6586797D01*
X2268797Y6600835D01*
X2261347Y6605136D01*
Y6659325D01*
X2349964Y6747943D01*
X2448897D01*
X2466139Y6751372D01*
X2476500Y6758295D01*
X2486861Y6751372D01*
X2504103Y6747943D01*
X2513853D01*
Y6707680D01*
X2505327Y6699153D01*
X2496820Y6678615D01*
Y6656385D01*
X2505327Y6635847D01*
X2521047Y6620127D01*
X2541585Y6611620D01*
X2563815D01*
X2584353Y6620127D01*
X2600073Y6635847D01*
X2608580Y6656385D01*
Y6678615D01*
X2600073Y6699153D01*
X2591547Y6707680D01*
Y6747943D01*
X2612916D01*
X2630159Y6751372D01*
X2644776Y6761140D01*
X2654544Y6775757D01*
X2657973Y6793000D01*
X2657299Y6796387D01*
X2665356Y6806205D01*
X2707200D01*
Y6744500D01*
X2830000D01*
Y6806205D01*
X2861923D01*
X2871785Y6802120D01*
X2894015D01*
X2903877Y6806205D01*
X2918046D01*
X2950100Y6774150D01*
Y6741600D01*
X3145900D01*
Y6774150D01*
X3149625Y6777875D01*
X3160853Y6794679D01*
X3164795Y6814500D01*
Y6953500D01*
X3160900Y6973084D01*
Y7028900D01*
X3065100D01*
Y6973084D01*
X3061205Y6953500D01*
Y6847400D01*
X3034795D01*
Y6953500D01*
X3030900Y6973084D01*
Y7028900D01*
X2935100D01*
Y6973084D01*
X2931205Y6953500D01*
Y6909795D01*
X2903877D01*
X2894015Y6913880D01*
X2871785D01*
X2861923Y6909795D01*
X2769347D01*
Y7110864D01*
X2776797Y7115165D01*
X2790835Y7129203D01*
X2800762Y7146397D01*
X2805900Y7165573D01*
Y7185427D01*
X2800762Y7204603D01*
X2790835Y7221797D01*
X2776797Y7235835D01*
X2759603Y7245762D01*
X2740427Y7250900D01*
X2720573D01*
X2701397Y7245762D01*
X2684203Y7235835D01*
X2670165Y7221797D01*
X2660238Y7204603D01*
X2655100Y7185427D01*
Y7165573D01*
X2660238Y7146397D01*
X2670165Y7129203D01*
X2684203Y7115165D01*
X2691653Y7110864D01*
Y6909795D01*
X2665356D01*
X2657299Y6919613D01*
X2657973Y6923000D01*
X2654544Y6940243D01*
X2644776Y6954860D01*
X2630159Y6964627D01*
X2612916Y6968057D01*
X2531272D01*
X2529241Y6971097D01*
X2424369Y7075969D01*
X2420664Y7078444D01*
X2422649Y7087947D01*
X2424058Y7091451D01*
X2443855Y7099651D01*
X2459574Y7115371D01*
X2467425Y7134324D01*
X2356978D01*
X2364829Y7115371D01*
X2380153Y7100047D01*
X2380059Y7097924D01*
X2377067Y7087347D01*
X2351580D01*
X2343053Y7095873D01*
X2322515Y7104380D01*
X2300285D01*
X2279747Y7095873D01*
X2274047Y7090173D01*
X2261347Y7095433D01*
Y7110864D01*
X2268797Y7115165D01*
X2282835Y7129203D01*
X2292762Y7146397D01*
X2297900Y7165573D01*
Y7185427D01*
X2292762Y7204603D01*
X2282835Y7221797D01*
X2268797Y7235835D01*
X2251603Y7245762D01*
X2232427Y7250900D01*
X2212573D01*
X2193397Y7245762D01*
X2176203Y7235835D01*
X2162165Y7221797D01*
X2152238Y7204603D01*
X2147100Y7185427D01*
Y7165573D01*
X2152238Y7146397D01*
X2162165Y7129203D01*
X2176203Y7115165D01*
X2183653Y7110864D01*
Y7077291D01*
X2068209Y6961846D01*
X2054007D01*
Y7068710D01*
X1945994D01*
Y7067540D01*
X1933294Y7060752D01*
X1926072Y7065577D01*
X1917700Y7067242D01*
Y6968048D01*
X1892300D01*
Y7067242D01*
X1883928Y7065577D01*
X1866064Y7053640D01*
X1853319Y7057426D01*
X1848846Y7062074D01*
Y7092000D01*
X1845889Y7106866D01*
X1837469Y7119469D01*
X1698071Y7258867D01*
X1702931Y7270600D01*
X1733300D01*
Y7353300D01*
X1670600D01*
Y7302931D01*
X1658867Y7298070D01*
X1631400Y7325537D01*
Y7461400D01*
X1620744D01*
Y7654195D01*
X1638346Y7671797D01*
X1655843Y7702102D01*
X1664900Y7735904D01*
Y7770897D01*
X1655843Y7804698D01*
X1638346Y7835003D01*
X1613603Y7859747D01*
X1583298Y7877243D01*
X1549497Y7886300D01*
D02*
G37*
G36*
X3834900Y6921400D02*
X3632200D01*
Y6807200D01*
X3834900D01*
Y6921400D01*
D02*
G37*
G36*
X3606800D02*
X3404100D01*
Y6807200D01*
X3606800D01*
Y6921400D01*
D02*
G37*
G36*
X1662901Y6808548D02*
Y6766024D01*
X1705425D01*
X1697574Y6784978D01*
X1681855Y6800697D01*
X1662901Y6808548D01*
D02*
G37*
G36*
X1637501D02*
X1618548Y6800697D01*
X1602829Y6784978D01*
X1594978Y6766024D01*
X1637501D01*
Y6808548D01*
D02*
G37*
G36*
X1314700Y6847146D02*
Y6760652D01*
X1357065D01*
Y6794607D01*
X1352873Y6815679D01*
X1340937Y6833544D01*
X1323072Y6845480D01*
X1314700Y6847146D01*
D02*
G37*
G36*
X1289300Y6847145D02*
X1280928Y6845480D01*
X1263063Y6833544D01*
X1251127Y6815679D01*
X1246935Y6794607D01*
Y6760652D01*
X1289300D01*
Y6847145D01*
D02*
G37*
G36*
X1705425Y6740624D02*
X1662901D01*
Y6698100D01*
X1681855Y6705951D01*
X1697574Y6721671D01*
X1705425Y6740624D01*
D02*
G37*
G36*
X1637501D02*
X1594978D01*
X1602829Y6721671D01*
X1618548Y6705951D01*
X1637501Y6698100D01*
Y6740624D01*
D02*
G37*
G36*
X3834900Y6781800D02*
X3632200D01*
Y6667600D01*
X3834900D01*
Y6781800D01*
D02*
G37*
G36*
X2120900Y6692900D02*
X2078376D01*
X2086227Y6673947D01*
X2101947Y6658227D01*
X2120900Y6650376D01*
Y6692900D01*
D02*
G37*
G36*
X1797300Y6735252D02*
X1754935D01*
Y6701296D01*
X1759127Y6680224D01*
X1771063Y6662360D01*
X1788928Y6650423D01*
X1797300Y6648758D01*
Y6735252D01*
D02*
G37*
G36*
X1289300D02*
X1246935D01*
Y6701296D01*
X1251127Y6680224D01*
X1263063Y6662360D01*
X1280928Y6650423D01*
X1289300Y6648758D01*
Y6735252D01*
D02*
G37*
G36*
X1865065D02*
X1822700D01*
Y6648758D01*
X1831072Y6650423D01*
X1848937Y6662360D01*
X1860873Y6680224D01*
X1865065Y6701296D01*
Y6735252D01*
D02*
G37*
G36*
X1357065D02*
X1314700D01*
Y6648758D01*
X1323072Y6650423D01*
X1340937Y6662360D01*
X1352873Y6680224D01*
X1357065Y6701296D01*
Y6735252D01*
D02*
G37*
G36*
X2830000Y6719100D02*
X2707200D01*
Y6670400D01*
X2739380D01*
X2745238Y6657700D01*
X2738776Y6642100D01*
X2849224D01*
X2841373Y6661053D01*
X2830000Y6672426D01*
Y6719100D01*
D02*
G37*
G36*
X3606800Y6781800D02*
X3404100D01*
Y6667600D01*
X3397291Y6661489D01*
X3396549Y6660997D01*
X3396548Y6660997D01*
X3380829Y6645278D01*
X3372978Y6626324D01*
X3483425D01*
X3475574Y6645278D01*
X3465952Y6654900D01*
X3471212Y6667600D01*
X3606800D01*
Y6781800D01*
D02*
G37*
G36*
X1218401Y6618048D02*
X1199448Y6610197D01*
X1183729Y6594478D01*
X1175878Y6575524D01*
X1218401D01*
Y6618048D01*
D02*
G37*
G36*
X3483425Y6600924D02*
X3440901D01*
Y6558400D01*
X3459855Y6566251D01*
X3475574Y6581971D01*
X3483425Y6600924D01*
D02*
G37*
G36*
X3415501D02*
X3372978D01*
X3380829Y6581971D01*
X3396548Y6566251D01*
X3415501Y6558400D01*
Y6600924D01*
D02*
G37*
G36*
X1842300Y6601900D02*
X1793600D01*
Y6553200D01*
X1842300D01*
Y6601900D01*
D02*
G37*
G36*
X2849224Y6616700D02*
X2737061D01*
X2736526Y6615900D01*
X2720573D01*
X2701397Y6610762D01*
X2684203Y6600835D01*
X2670165Y6586797D01*
X2660238Y6569603D01*
X2655843Y6553200D01*
X2730500D01*
X2805157D01*
X2803115Y6560820D01*
X2804895Y6572120D01*
X2811612Y6576211D01*
X2825653Y6582027D01*
X2841373Y6597747D01*
X2849224Y6616700D01*
D02*
G37*
G36*
X1218401Y6550124D02*
X1175878D01*
X1183729Y6531171D01*
X1199448Y6515451D01*
X1218401Y6507600D01*
Y6550124D01*
D02*
G37*
G36*
X1842300Y6527800D02*
X1793600D01*
Y6479100D01*
X1842300D01*
Y6527800D01*
D02*
G37*
G36*
X1243801Y6618048D02*
Y6562824D01*
Y6507600D01*
X1262755Y6515451D01*
X1272900Y6525597D01*
X1285600Y6520336D01*
Y6479100D01*
X1334300D01*
Y6540500D01*
Y6601900D01*
X1285601D01*
X1285600Y6601900D01*
Y6601900D01*
X1272900Y6600052D01*
X1262755Y6610197D01*
X1243801Y6618048D01*
D02*
G37*
G36*
X2805157Y6527800D02*
X2743200D01*
Y6465843D01*
X2759603Y6470238D01*
X2776797Y6480165D01*
X2790835Y6494203D01*
X2800762Y6511397D01*
X2805157Y6527800D01*
D02*
G37*
G36*
X2717800D02*
X2655843D01*
X2660238Y6511397D01*
X2670165Y6494203D01*
X2684203Y6480165D01*
X2701397Y6470238D01*
X2717800Y6465843D01*
Y6527800D01*
D02*
G37*
G36*
X1492000Y6849672D02*
X1470928Y6845480D01*
X1453063Y6833544D01*
X1441127Y6815679D01*
X1436935Y6794607D01*
Y6779839D01*
X1432184Y6772728D01*
X1427256Y6747952D01*
Y6601900D01*
X1359700D01*
Y6540500D01*
Y6479100D01*
X1381118D01*
Y6443685D01*
X1386046Y6418908D01*
X1400081Y6397904D01*
X1421085Y6383869D01*
X1445862Y6378941D01*
X1470638Y6383869D01*
X1491643Y6397904D01*
X1505677Y6418908D01*
X1510606Y6443685D01*
Y6500072D01*
X1537781Y6527248D01*
X1551816Y6548252D01*
X1556744Y6573029D01*
Y6747952D01*
X1551816Y6772728D01*
X1547065Y6779839D01*
Y6794607D01*
X1542873Y6815679D01*
X1530937Y6833544D01*
X1513072Y6845480D01*
X1492000Y6849672D01*
D02*
G37*
G36*
X2664900Y7886300D02*
X2399100D01*
Y7620500D01*
X2609963D01*
X2890191Y7340272D01*
X2902794Y7331851D01*
X2917659Y7328894D01*
X2971102D01*
X2979520Y7322854D01*
X2982114Y7320245D01*
X2982225Y7316415D01*
X2982796Y7313928D01*
X2982870Y7311379D01*
X2984584Y7303908D01*
X2985629Y7301582D01*
X2986199Y7299095D01*
X2989337Y7292103D01*
X2990816Y7290024D01*
X2991861Y7287696D01*
X2996303Y7281450D01*
X2998159Y7279700D01*
X2999638Y7277621D01*
X3005213Y7272362D01*
X3007375Y7271008D01*
X3009153Y7269330D01*
Y7218900D01*
X2995700D01*
Y7143500D01*
Y7068100D01*
X3160900D01*
Y7218900D01*
X3086847D01*
Y7269306D01*
X3088673Y7271031D01*
X3090833Y7272387D01*
X3096400Y7277646D01*
X3097878Y7279726D01*
X3099733Y7281478D01*
X3104167Y7287722D01*
X3105209Y7290049D01*
X3106686Y7292129D01*
X3109818Y7299118D01*
X3110387Y7301605D01*
X3111430Y7303934D01*
X3113137Y7311400D01*
X3113209Y7313949D01*
X3113778Y7316435D01*
X3113887Y7320263D01*
X3116445Y7322829D01*
X3124892Y7328894D01*
X3225102D01*
X3233520Y7322854D01*
X3236114Y7320245D01*
X3236225Y7316415D01*
X3236796Y7313928D01*
X3236870Y7311379D01*
X3238584Y7303908D01*
X3239629Y7301582D01*
X3240199Y7299095D01*
X3243337Y7292103D01*
X3244816Y7290024D01*
X3245861Y7287696D01*
X3250303Y7281450D01*
X3252159Y7279700D01*
X3253638Y7277621D01*
X3259213Y7272362D01*
X3261375Y7271008D01*
X3263153Y7269330D01*
Y6538091D01*
X2982463Y6257400D01*
X2931600D01*
Y6151600D01*
Y6079537D01*
X2855463Y6003400D01*
X2804600D01*
Y5989347D01*
X2575098D01*
Y6013191D01*
X2575098Y6013191D01*
X2575098D01*
X2574621Y6021299D01*
X2476500D01*
Y6046699D01*
X2573438D01*
X2572534Y6051243D01*
X2569231Y6056185D01*
X2563144Y6066500D01*
X2569231Y6076815D01*
X2572534Y6081757D01*
X2575964Y6099000D01*
X2572534Y6116243D01*
X2562767Y6130860D01*
X2548149Y6140628D01*
X2530906Y6144057D01*
X2422094D01*
X2404851Y6140628D01*
X2400689Y6137847D01*
X2388292D01*
X2384130Y6140628D01*
X2366887Y6144057D01*
X2258074D01*
X2240831Y6140628D01*
X2226214Y6130860D01*
X2216447Y6116243D01*
X2213017Y6099000D01*
X2213470Y6096721D01*
X1997596Y5880847D01*
X1767400D01*
Y5894900D01*
X1661600D01*
Y5754037D01*
X1661409Y5753847D01*
X1525900D01*
Y5812400D01*
X1395100D01*
Y5753847D01*
X826636D01*
X822335Y5761297D01*
X808297Y5775335D01*
X791103Y5785262D01*
X771927Y5790400D01*
X752073D01*
X732897Y5785262D01*
X715703Y5775335D01*
X701665Y5761297D01*
X691738Y5744103D01*
X691562Y5743446D01*
X577207D01*
X570857Y5754445D01*
X575899Y5763177D01*
X582400Y5787441D01*
Y5812560D01*
X575899Y5836823D01*
X570857Y5845555D01*
X577207Y5856554D01*
X590909D01*
X632932Y5814531D01*
X645534Y5806111D01*
X660400Y5803153D01*
X1128220D01*
X1136747Y5794627D01*
X1157285Y5786120D01*
X1179515D01*
X1200053Y5794627D01*
X1215773Y5810347D01*
X1224280Y5830885D01*
Y5853115D01*
X1215773Y5873653D01*
X1200053Y5889373D01*
X1179515Y5897880D01*
X1157285D01*
X1136747Y5889373D01*
X1128220Y5880847D01*
X676491D01*
X634469Y5922869D01*
X621866Y5931290D01*
X619665Y5931728D01*
X620915Y5944428D01*
X690524D01*
X691738Y5939897D01*
X701665Y5922703D01*
X715703Y5908665D01*
X732897Y5898738D01*
X752073Y5893600D01*
X771927D01*
X791103Y5898738D01*
X808297Y5908665D01*
X822335Y5922703D01*
X826636Y5930153D01*
X886920D01*
X895447Y5921627D01*
X915985Y5913120D01*
X938215D01*
X958753Y5921627D01*
X974473Y5937347D01*
X982980Y5957885D01*
Y5980115D01*
X974473Y6000653D01*
X958753Y6016373D01*
X938215Y6024880D01*
X915985D01*
X895447Y6016373D01*
X886920Y6007847D01*
X826636D01*
X822335Y6015297D01*
X808297Y6029335D01*
X791103Y6039262D01*
X771927Y6044400D01*
X752073D01*
X732897Y6039262D01*
X715703Y6029335D01*
X708489Y6022121D01*
X579838D01*
X575899Y6036823D01*
X570511Y6046155D01*
X576861Y6057153D01*
X1648920D01*
X1657447Y6048627D01*
X1677985Y6040120D01*
X1700215D01*
X1720753Y6048627D01*
X1736473Y6064347D01*
X1744980Y6084885D01*
Y6107115D01*
X1736473Y6127653D01*
X1720753Y6143373D01*
X1700215Y6151880D01*
X1677985D01*
X1657447Y6143373D01*
X1648920Y6134847D01*
X582400D01*
Y6184153D01*
X697364D01*
X701665Y6176703D01*
X715703Y6162665D01*
X732897Y6152738D01*
X752073Y6147600D01*
X771927D01*
X791103Y6152738D01*
X808297Y6162665D01*
X822335Y6176703D01*
X822970Y6177803D01*
X982170D01*
X997047Y6162927D01*
X1017585Y6154420D01*
X1039815D01*
X1060353Y6162927D01*
X1076073Y6178647D01*
X1084580Y6199185D01*
Y6221415D01*
X1076073Y6241953D01*
X1060353Y6257673D01*
X1039815Y6266180D01*
X1017585D01*
X997047Y6257673D01*
X994870Y6255497D01*
X830303D01*
X822335Y6269297D01*
X808297Y6283335D01*
X791103Y6293262D01*
X771927Y6298400D01*
X752073D01*
X732897Y6293262D01*
X715703Y6283335D01*
X701665Y6269297D01*
X697364Y6261847D01*
X582400D01*
Y6295400D01*
X391600D01*
Y6227292D01*
X378900Y6225621D01*
X375898Y6236823D01*
X363339Y6258577D01*
X345577Y6276339D01*
X323823Y6288899D01*
X299559Y6295400D01*
X274440D01*
X250177Y6288899D01*
X228423Y6276339D01*
X210661Y6258577D01*
X198101Y6236823D01*
X191600Y6212560D01*
Y6187441D01*
X198101Y6163177D01*
X210661Y6141423D01*
X228423Y6123661D01*
X250177Y6111102D01*
X267073Y6106574D01*
Y6093426D01*
X250177Y6088899D01*
X228423Y6076339D01*
X210661Y6058577D01*
X198101Y6036823D01*
X191600Y6012560D01*
Y5987441D01*
X198101Y5963177D01*
X210661Y5941423D01*
X228423Y5923661D01*
X250177Y5911102D01*
X267074Y5906574D01*
Y5893426D01*
X250177Y5888899D01*
X228423Y5876339D01*
X210661Y5858577D01*
X198101Y5836823D01*
X191600Y5812560D01*
Y5787441D01*
X198101Y5763177D01*
X210661Y5741423D01*
X228423Y5723661D01*
X250177Y5711102D01*
X267074Y5706574D01*
Y5693426D01*
X250177Y5688898D01*
X228423Y5676339D01*
X210661Y5658577D01*
X198101Y5636823D01*
X191600Y5612560D01*
Y5587440D01*
X198101Y5563177D01*
X210661Y5541423D01*
X228423Y5523661D01*
X250177Y5511102D01*
X267073Y5506574D01*
Y5493426D01*
X250177Y5488899D01*
X228423Y5476339D01*
X210661Y5458577D01*
X198101Y5436823D01*
X191600Y5412560D01*
Y5387441D01*
X198101Y5363177D01*
X210661Y5341423D01*
X228423Y5323661D01*
X250177Y5311102D01*
X267074Y5306574D01*
Y5293426D01*
X250177Y5288898D01*
X228423Y5276339D01*
X210661Y5258577D01*
X198101Y5236823D01*
X191638Y5212700D01*
X287000D01*
Y5187300D01*
X191638D01*
X198101Y5163177D01*
X210661Y5141423D01*
X228423Y5123661D01*
X250177Y5111102D01*
X267073Y5106574D01*
Y5093426D01*
X250177Y5088899D01*
X228423Y5076339D01*
X210661Y5058577D01*
X198101Y5036823D01*
X191600Y5012560D01*
Y4987441D01*
X198101Y4963177D01*
X210661Y4941423D01*
X228423Y4923661D01*
X250177Y4911102D01*
X267074Y4906574D01*
Y4893426D01*
X250177Y4888899D01*
X228423Y4876339D01*
X210661Y4858577D01*
X198101Y4836823D01*
X191600Y4812560D01*
Y4787441D01*
X198101Y4763177D01*
X210661Y4741423D01*
X228423Y4723661D01*
X250177Y4711102D01*
X267073Y4706574D01*
Y4693426D01*
X250177Y4688899D01*
X228423Y4676339D01*
X210661Y4658577D01*
X198101Y4636823D01*
X191600Y4612560D01*
Y4587441D01*
X198101Y4563177D01*
X210661Y4541423D01*
X228423Y4523661D01*
X250177Y4511102D01*
X267074Y4506574D01*
Y4493426D01*
X250177Y4488899D01*
X228423Y4476339D01*
X210661Y4458577D01*
X198101Y4436823D01*
X191600Y4412560D01*
Y4387441D01*
X198101Y4363177D01*
X210661Y4341423D01*
X228423Y4323661D01*
X250177Y4311102D01*
X274440Y4304600D01*
X299559D01*
X323823Y4311102D01*
X345577Y4323661D01*
X363339Y4341423D01*
X375898Y4363177D01*
X380426Y4380074D01*
X393574D01*
X398102Y4363177D01*
X410661Y4341423D01*
X428423Y4323661D01*
X450177Y4311102D01*
X474441Y4304600D01*
X499560D01*
X523823Y4311102D01*
X545577Y4323661D01*
X563339Y4341423D01*
X575899Y4363177D01*
X582400Y4387441D01*
Y4412560D01*
X575899Y4436823D01*
X563339Y4458577D01*
X545577Y4476339D01*
X523823Y4488899D01*
X506926Y4493426D01*
Y4506574D01*
X523823Y4511102D01*
X545577Y4523661D01*
X563339Y4541423D01*
X575899Y4563177D01*
X582400Y4587441D01*
Y4612560D01*
X575899Y4636823D01*
X563339Y4658577D01*
X545577Y4676339D01*
X523823Y4688899D01*
X506927Y4693426D01*
Y4706574D01*
X523823Y4711102D01*
X545577Y4723661D01*
X563339Y4741423D01*
X575899Y4763177D01*
X582400Y4787441D01*
Y4812560D01*
X575899Y4836823D01*
X563339Y4858577D01*
X545577Y4876339D01*
X523823Y4888899D01*
X506926Y4893426D01*
Y4906574D01*
X523823Y4911102D01*
X545577Y4923661D01*
X563339Y4941423D01*
X575899Y4963177D01*
X582400Y4987441D01*
Y4995078D01*
X595100Y5000338D01*
X633756Y4961682D01*
Y2772109D01*
X621056Y2769583D01*
X618873Y2774853D01*
X603153Y2790573D01*
X582615Y2799080D01*
X560385D01*
X539847Y2790573D01*
X524127Y2774853D01*
X515620Y2754315D01*
Y2732085D01*
X524127Y2711547D01*
X532653Y2703020D01*
Y2656800D01*
X501200D01*
Y2456000D01*
X633756D01*
Y2166800D01*
X501200D01*
Y2071647D01*
X467800D01*
Y2120100D01*
X406400D01*
Y2132800D01*
X393700D01*
Y2194200D01*
X345000D01*
Y2185145D01*
X332300Y2179286D01*
X316701Y2185748D01*
Y2130524D01*
Y2075300D01*
X332300Y2081762D01*
X345000Y2075903D01*
Y1971400D01*
X467800D01*
Y1993954D01*
X501200D01*
Y1966000D01*
X634952D01*
X637233Y1963719D01*
X638684Y1956424D01*
X652719Y1935419D01*
X673724Y1921384D01*
X698500Y1916456D01*
X723276Y1921384D01*
X744281Y1935419D01*
X758316Y1956424D01*
X763244Y1981200D01*
Y2099695D01*
X818500Y2154950D01*
X831200Y2150630D01*
Y1966000D01*
X862753D01*
Y1568972D01*
X824598Y1530817D01*
X781073Y1574342D01*
X681513Y1474781D01*
X823499Y1332795D01*
X923060Y1432355D01*
X879535Y1475880D01*
X929068Y1525413D01*
X937489Y1538016D01*
X940446Y1552882D01*
Y1665944D01*
X952179Y1670805D01*
X976871Y1646114D01*
X1017671Y1686914D01*
X955657Y1748927D01*
X952179Y1745449D01*
X940446Y1750309D01*
Y1966000D01*
X972000D01*
Y2132757D01*
X983733Y2137618D01*
X1013900Y2107450D01*
Y1984900D01*
X1119700D01*
Y1998954D01*
X1403800D01*
X1418666Y2001911D01*
X1431269Y2010332D01*
X1614037Y2193100D01*
X1744900D01*
Y2378900D01*
X1559100D01*
Y2248037D01*
X1387709Y2076647D01*
X1119700D01*
Y2180700D01*
X1087150D01*
X1021425Y2246425D01*
X1004621Y2257653D01*
X984800Y2261595D01*
X800100D01*
X780279Y2257653D01*
X775944Y2254756D01*
X763244Y2261545D01*
Y4923756D01*
X2092900D01*
X2117676Y4928684D01*
X2138681Y4942719D01*
X2242881Y5046919D01*
X2256916Y5067923D01*
X2261844Y5092700D01*
X2256916Y5117476D01*
X2242881Y5138481D01*
X2221876Y5152516D01*
X2197100Y5157444D01*
X2172323Y5152516D01*
X2151319Y5138481D01*
X2066082Y5053244D01*
X1362760D01*
X1360234Y5065944D01*
X1364355Y5067651D01*
X1380074Y5083371D01*
X1387925Y5102324D01*
X1277478D01*
X1285329Y5083371D01*
X1301048Y5067651D01*
X1305169Y5065944D01*
X1302643Y5053244D01*
X725318D01*
X582400Y5196162D01*
Y5212560D01*
X575899Y5236823D01*
X563339Y5258577D01*
X545577Y5276339D01*
X523823Y5288898D01*
X506926Y5293426D01*
Y5306574D01*
X523823Y5311102D01*
X545577Y5323661D01*
X563339Y5341423D01*
X575899Y5363177D01*
X582362Y5387300D01*
X487000D01*
Y5412700D01*
X582362D01*
X575899Y5436823D01*
X572226Y5443184D01*
X578898Y5457028D01*
X583365Y5457698D01*
X607532Y5433531D01*
X620134Y5425111D01*
X635000Y5422153D01*
X697364D01*
X701665Y5414703D01*
X715703Y5400665D01*
X732897Y5390738D01*
X752073Y5385600D01*
X771927D01*
X791103Y5390738D01*
X808297Y5400665D01*
X822335Y5414703D01*
X826636Y5422153D01*
X1395100D01*
Y5363600D01*
X1525900D01*
Y5422153D01*
X1661409D01*
X1661600Y5421963D01*
Y5371100D01*
Y5281100D01*
X1767400D01*
Y5295153D01*
X1840364D01*
X1844665Y5287703D01*
X1858703Y5273665D01*
X1866153Y5269364D01*
Y5209080D01*
X1857627Y5200553D01*
X1849120Y5180015D01*
Y5157785D01*
X1857627Y5137247D01*
X1873347Y5121527D01*
X1893885Y5113020D01*
X1916115D01*
X1936653Y5121527D01*
X1952373Y5137247D01*
X1960880Y5157785D01*
Y5180015D01*
X1952373Y5200553D01*
X1943847Y5209080D01*
Y5269364D01*
X1951297Y5273665D01*
X1965335Y5287703D01*
X1975262Y5304897D01*
X1980400Y5324073D01*
Y5343927D01*
X1975262Y5363103D01*
X1965335Y5380297D01*
X1951297Y5394335D01*
X1934103Y5404262D01*
X1914927Y5409400D01*
X1895073D01*
X1875897Y5404262D01*
X1858703Y5394335D01*
X1844665Y5380297D01*
X1840364Y5372847D01*
X1767400D01*
Y5476900D01*
X1716537D01*
X1704969Y5488469D01*
X1692366Y5496889D01*
X1677500Y5499847D01*
X1525900D01*
Y5504400D01*
X1395100D01*
Y5499847D01*
X826636D01*
X822335Y5507297D01*
X808297Y5521335D01*
X791103Y5531262D01*
X771927Y5536400D01*
X752073D01*
X732897Y5531262D01*
X715703Y5521335D01*
X701665Y5507297D01*
X697364Y5499847D01*
X651091D01*
X618869Y5532068D01*
X606266Y5540489D01*
X591400Y5543446D01*
X577207D01*
X570857Y5554445D01*
X575899Y5563177D01*
X582400Y5587440D01*
Y5612560D01*
X575899Y5636823D01*
X566528Y5653053D01*
X573260Y5665753D01*
X704615D01*
X715703Y5654665D01*
X732897Y5644738D01*
X752073Y5639600D01*
X771927D01*
X791103Y5644738D01*
X808297Y5654665D01*
X822335Y5668703D01*
X826636Y5676153D01*
X1395100D01*
Y5671600D01*
X1525900D01*
Y5676153D01*
X1677500D01*
X1692366Y5679111D01*
X1704969Y5687531D01*
X1716537Y5699100D01*
X1767400D01*
Y5803153D01*
X2013687D01*
X2028553Y5806111D01*
X2041155Y5814531D01*
X2201171Y5974547D01*
X2211055Y5969919D01*
X2213111Y5968527D01*
X2216447Y5951757D01*
X2226214Y5937140D01*
X2240831Y5927372D01*
X2247456Y5926055D01*
Y5881344D01*
X2197100D01*
X2172324Y5876416D01*
X2151319Y5862381D01*
X2137284Y5841376D01*
X2132356Y5816600D01*
X2137284Y5791824D01*
X2151319Y5770819D01*
X2172324Y5756784D01*
X2197100Y5751856D01*
X2312200D01*
X2329012Y5755200D01*
X2372558D01*
X2377082Y5742500D01*
X2369678Y5724624D01*
X2480125D01*
X2472720Y5742500D01*
X2473600Y5755200D01*
X2473600Y5755200D01*
X2473600Y5755201D01*
Y5803900D01*
X2412200D01*
Y5816600D01*
X2399500D01*
Y5878000D01*
X2376944D01*
Y5912505D01*
X2377903Y5924809D01*
X2520160D01*
X2521937Y5923032D01*
X2534540Y5914611D01*
X2549406Y5911654D01*
X2804600D01*
Y5807600D01*
X2818653D01*
Y5769191D01*
X2791931Y5742469D01*
X2783511Y5729866D01*
X2780553Y5715000D01*
Y5658900D01*
X2723600D01*
Y5513100D01*
X2809332D01*
X2811859Y5500400D01*
X2800447Y5495673D01*
X2784727Y5479953D01*
X2776876Y5461000D01*
X2887324D01*
X2879473Y5479953D01*
X2863753Y5495673D01*
X2852341Y5500400D01*
X2854868Y5513100D01*
X2864400D01*
Y5658900D01*
X2858247D01*
Y5698909D01*
X2884969Y5725631D01*
X2893389Y5738234D01*
X2896347Y5753100D01*
Y5807600D01*
X2910400D01*
Y5911654D01*
X3058600D01*
Y5807600D01*
X3072653D01*
Y5748850D01*
X3075611Y5733984D01*
X3084031Y5721381D01*
X3103853Y5701559D01*
Y5618300D01*
X3104600Y5614546D01*
Y5513100D01*
X3245400D01*
Y5658900D01*
X3181546D01*
Y5717650D01*
X3178589Y5732516D01*
X3170169Y5745119D01*
X3150347Y5764941D01*
Y5807600D01*
X3164400D01*
Y5897600D01*
Y6003400D01*
X3058600D01*
Y5989347D01*
X2967877D01*
X2963017Y6001080D01*
X3001428Y6039491D01*
X3009849Y6052094D01*
X3011740Y6061600D01*
X3037400D01*
Y6075654D01*
X3173313D01*
X3188179Y6078611D01*
X3200782Y6087032D01*
X3205334Y6091584D01*
X3209397Y6089238D01*
X3228573Y6084100D01*
X3248427D01*
X3267603Y6089238D01*
X3284797Y6099165D01*
X3298835Y6113203D01*
X3308762Y6130397D01*
X3313900Y6149573D01*
Y6169427D01*
X3308762Y6188603D01*
X3298835Y6205797D01*
X3284797Y6219835D01*
X3267603Y6229762D01*
X3248427Y6234900D01*
X3228573D01*
X3209397Y6229762D01*
X3192203Y6219835D01*
X3178165Y6205797D01*
X3168238Y6188603D01*
X3163100Y6169427D01*
Y6159224D01*
X3157223Y6153347D01*
X3037400D01*
Y6202463D01*
X3329469Y6494532D01*
X3337889Y6507134D01*
X3340847Y6522000D01*
Y7269306D01*
X3342673Y7271031D01*
X3344833Y7272387D01*
X3350400Y7277646D01*
X3351878Y7279726D01*
X3353733Y7281478D01*
X3358167Y7287722D01*
X3359209Y7290049D01*
X3360686Y7292129D01*
X3363818Y7299118D01*
X3364387Y7301605D01*
X3365430Y7303934D01*
X3367137Y7311400D01*
X3367209Y7313949D01*
X3367778Y7316435D01*
X3367887Y7320263D01*
X3367824Y7320633D01*
X3367897Y7321000D01*
X3366983Y7325598D01*
X3366198Y7330226D01*
X3365999Y7330543D01*
X3365926Y7330910D01*
X3365871Y7330993D01*
X3365912Y7331053D01*
X3365916Y7331072D01*
X3365926Y7331089D01*
X3366001Y7331465D01*
X3366205Y7331791D01*
X3366982Y7336391D01*
X3367898Y7340961D01*
X3367894Y7340980D01*
X3367898Y7340999D01*
X3367823Y7341376D01*
X3367887Y7341755D01*
X3367775Y7345585D01*
X3367205Y7348070D01*
X3367131Y7350619D01*
X3365417Y7358090D01*
X3364372Y7360418D01*
X3363802Y7362905D01*
X3360664Y7369897D01*
X3359185Y7371976D01*
X3358141Y7374303D01*
X3353699Y7380549D01*
X3351842Y7382300D01*
X3350363Y7384379D01*
X3344788Y7389638D01*
X3342626Y7390992D01*
X3340771Y7392742D01*
X3334277Y7396812D01*
X3331892Y7397719D01*
X3329730Y7399074D01*
X3322567Y7401799D01*
X3320051Y7402223D01*
X3317667Y7403129D01*
X3315269Y7403534D01*
X3315125Y7403630D01*
X3300259Y7406587D01*
X3087841D01*
X3087840Y7406587D01*
X3049741D01*
X3048000Y7406241D01*
X3046259Y7406587D01*
X2933750D01*
X2664900Y7675437D01*
Y7886300D01*
D02*
G37*
G36*
X2653501Y6122748D02*
Y6080224D01*
X2696025D01*
X2688174Y6099178D01*
X2672455Y6114897D01*
X2653501Y6122748D01*
D02*
G37*
G36*
X2628101D02*
X2609148Y6114897D01*
X2593429Y6099178D01*
X2585578Y6080224D01*
X2628101D01*
Y6122748D01*
D02*
G37*
G36*
X2696025Y6054824D02*
X2653501D01*
Y6012300D01*
X2672455Y6020151D01*
X2688174Y6035871D01*
X2696025Y6054824D01*
D02*
G37*
G36*
X2628101D02*
X2585578D01*
X2593429Y6035871D01*
X2609148Y6020151D01*
X2628101Y6012300D01*
Y6054824D01*
D02*
G37*
G36*
X1620900Y6012400D02*
X1568200D01*
Y5954700D01*
X1620900D01*
Y6012400D01*
D02*
G37*
G36*
X1542800D02*
X1490100D01*
Y5954700D01*
X1542800D01*
Y6012400D01*
D02*
G37*
G36*
X1620900Y5929300D02*
X1568200D01*
Y5871600D01*
X1620900D01*
Y5929300D01*
D02*
G37*
G36*
X1542800D02*
X1490100D01*
Y5871600D01*
X1542800D01*
Y5929300D01*
D02*
G37*
G36*
X1430900Y6012400D02*
X1300100D01*
Y5871600D01*
X1430900D01*
Y6012400D01*
D02*
G37*
G36*
X2473600Y5878000D02*
X2424900D01*
Y5829300D01*
X2473600D01*
Y5878000D01*
D02*
G37*
G36*
X1929601Y5779848D02*
Y5737324D01*
X1972125D01*
X1964274Y5756278D01*
X1948555Y5771997D01*
X1929601Y5779848D01*
D02*
G37*
G36*
X1904201D02*
X1885248Y5771997D01*
X1869529Y5756278D01*
X1861678Y5737324D01*
X1904201D01*
Y5779848D01*
D02*
G37*
G36*
X2480125Y5699224D02*
X2437601D01*
Y5656700D01*
X2456555Y5664551D01*
X2472274Y5680271D01*
X2480125Y5699224D01*
D02*
G37*
G36*
X2412201D02*
X2369678D01*
X2377529Y5680271D01*
X2393248Y5664551D01*
X2412201Y5656700D01*
Y5699224D01*
D02*
G37*
G36*
X1972125Y5711924D02*
X1861678D01*
X1869529Y5692971D01*
X1885248Y5677251D01*
X1890138Y5675226D01*
X1889261Y5661843D01*
X1875897Y5658262D01*
X1858703Y5648335D01*
X1844665Y5634297D01*
X1834738Y5617103D01*
X1830343Y5600700D01*
X1905000D01*
X1979657D01*
X1975262Y5617103D01*
X1965335Y5634297D01*
X1951297Y5648335D01*
X1934853Y5657829D01*
X1934146Y5660896D01*
X1934315Y5671353D01*
X1948555Y5677251D01*
X1964274Y5692971D01*
X1972125Y5711924D01*
D02*
G37*
G36*
X1979657Y5575300D02*
X1917700D01*
Y5513343D01*
X1934103Y5517738D01*
X1951297Y5527665D01*
X1965335Y5541703D01*
X1975262Y5558897D01*
X1979657Y5575300D01*
D02*
G37*
G36*
X1892300D02*
X1830343D01*
X1834738Y5558897D01*
X1844665Y5541703D01*
X1858703Y5527665D01*
X1875897Y5517738D01*
X1892300Y5513343D01*
Y5575300D01*
D02*
G37*
G36*
X3390101Y5500448D02*
Y5457924D01*
X3432625D01*
X3424774Y5476878D01*
X3409055Y5492597D01*
X3390101Y5500448D01*
D02*
G37*
G36*
X3364701D02*
X3345748Y5492597D01*
X3330029Y5476878D01*
X3322178Y5457924D01*
X3364701D01*
Y5500448D01*
D02*
G37*
G36*
X2592900Y5476900D02*
X2552700D01*
Y5436700D01*
X2592900D01*
Y5476900D01*
D02*
G37*
G36*
X2527300D02*
X2487100D01*
Y5436700D01*
X2527300D01*
Y5476900D01*
D02*
G37*
G36*
X3432625Y5432524D02*
X3390101D01*
Y5390000D01*
X3409055Y5397851D01*
X3424774Y5413571D01*
X3432625Y5432524D01*
D02*
G37*
G36*
X3364701D02*
X3322178D01*
X3326703Y5421600D01*
X3318217Y5408900D01*
X3282700D01*
Y5348700D01*
X3340400D01*
Y5386606D01*
X3353100Y5394806D01*
X3364701Y5390000D01*
Y5432524D01*
D02*
G37*
G36*
X3257300Y5408900D02*
X3199600D01*
Y5348700D01*
X3257300D01*
Y5408900D01*
D02*
G37*
G36*
X2887324Y5435600D02*
X2776876D01*
X2784727Y5416647D01*
X2800447Y5400927D01*
X2818600Y5393408D01*
Y5348700D01*
X2959400D01*
Y5408900D01*
X2888320D01*
X2881525Y5421600D01*
X2887324Y5435600D01*
D02*
G37*
G36*
X3340400Y5323300D02*
X3282700D01*
Y5263100D01*
X3340400D01*
Y5323300D01*
D02*
G37*
G36*
X3257300D02*
X3199600D01*
Y5263100D01*
X3257300D01*
Y5323300D01*
D02*
G37*
G36*
X2876300D02*
X2818600D01*
Y5263100D01*
X2876300D01*
Y5323300D01*
D02*
G37*
G36*
X2068515Y5770880D02*
X2046285D01*
X2025747Y5762373D01*
X2010027Y5746653D01*
X2001520Y5726115D01*
Y5703885D01*
X2010027Y5683347D01*
X2025747Y5667627D01*
X2046285Y5659120D01*
X2058343D01*
X2320931Y5396531D01*
X2333534Y5388111D01*
X2348400Y5385154D01*
X2360100D01*
Y5281100D01*
X2465900D01*
Y5295153D01*
X2487100D01*
Y5281100D01*
X2592900D01*
Y5295153D01*
X2628600D01*
Y5263100D01*
X2769400D01*
Y5408900D01*
X2628600D01*
Y5372847D01*
X2592900D01*
Y5411300D01*
X2487100D01*
Y5372847D01*
X2465900D01*
Y5476900D01*
X2360100D01*
Y5476900D01*
X2353267Y5474070D01*
X2113280Y5714057D01*
Y5726115D01*
X2104773Y5746653D01*
X2089053Y5762373D01*
X2068515Y5770880D01*
D02*
G37*
G36*
X1430900Y5304400D02*
X1378200D01*
Y5246700D01*
X1430900D01*
Y5304400D01*
D02*
G37*
G36*
X1352800D02*
X1300100D01*
Y5246700D01*
X1352800D01*
Y5304400D01*
D02*
G37*
G36*
X113501Y5259148D02*
Y5216624D01*
X156025D01*
X148174Y5235578D01*
X132455Y5251297D01*
X113501Y5259148D01*
D02*
G37*
G36*
X88101D02*
X69148Y5251297D01*
X53429Y5235578D01*
X45578Y5216624D01*
X88101D01*
Y5259148D01*
D02*
G37*
G36*
X799301Y5233748D02*
Y5191224D01*
X841825D01*
X833974Y5210178D01*
X818255Y5225897D01*
X799301Y5233748D01*
D02*
G37*
G36*
X773901D02*
X754948Y5225897D01*
X739229Y5210178D01*
X731378Y5191224D01*
X773901D01*
Y5233748D01*
D02*
G37*
G36*
X1620900Y5304400D02*
X1490100D01*
Y5163600D01*
X1620900D01*
Y5304400D01*
D02*
G37*
G36*
X156025Y5191224D02*
X113501D01*
Y5148700D01*
X132455Y5156551D01*
X148174Y5172271D01*
X156025Y5191224D01*
D02*
G37*
G36*
X88101D02*
X45578D01*
X53429Y5172271D01*
X69148Y5156551D01*
X88101Y5148700D01*
Y5191224D01*
D02*
G37*
G36*
X1430900Y5221300D02*
X1365500D01*
X1300100D01*
Y5163600D01*
X1292641Y5153990D01*
X1285329Y5146678D01*
X1277478Y5127724D01*
X1387925D01*
X1380074Y5146678D01*
X1375852Y5150900D01*
X1381112Y5163600D01*
X1430900D01*
Y5221300D01*
D02*
G37*
G36*
X841825Y5165824D02*
X799301D01*
Y5123300D01*
X818255Y5131151D01*
X833974Y5146871D01*
X841825Y5165824D01*
D02*
G37*
G36*
X773901D02*
X731378D01*
X739229Y5146871D01*
X754948Y5131151D01*
X773901Y5123300D01*
Y5165824D01*
D02*
G37*
G36*
X2648841Y5148723D02*
Y5106200D01*
X2691364D01*
X2683513Y5125153D01*
X2667794Y5140872D01*
X2648841Y5148723D01*
D02*
G37*
G36*
X2527300Y5104299D02*
X2487100D01*
Y5064100D01*
X2527300D01*
Y5104299D01*
D02*
G37*
G36*
X2691364Y5080800D02*
X2648841D01*
Y5038276D01*
X2667794Y5046127D01*
X2683513Y5061846D01*
X2691364Y5080800D01*
D02*
G37*
G36*
X2055815Y5469157D02*
X2033585D01*
X2013047Y5460650D01*
X1997327Y5444931D01*
X1988820Y5424393D01*
Y5402162D01*
X1997327Y5381624D01*
X2013047Y5365905D01*
X2033585Y5357397D01*
X2042237D01*
X2168041Y5231594D01*
X2168041Y5231593D01*
X2310103Y5089531D01*
X2322706Y5081110D01*
X2337572Y5078153D01*
X2360100D01*
Y5064100D01*
X2465900D01*
Y5168153D01*
X2487100D01*
Y5129699D01*
X2540000D01*
Y5116999D01*
X2552700D01*
Y5064100D01*
X2587834D01*
X2588768Y5061846D01*
X2604487Y5046127D01*
X2623441Y5038276D01*
Y5093500D01*
Y5148723D01*
X2605600Y5141333D01*
X2592900Y5145879D01*
Y5168153D01*
X2951000D01*
X2965866Y5171111D01*
X2978469Y5179531D01*
X3062037Y5263100D01*
X3150400D01*
Y5408900D01*
X3009600D01*
Y5320537D01*
X2971133Y5282070D01*
X2959400Y5286931D01*
Y5323300D01*
X2901700D01*
Y5263100D01*
X2926468D01*
X2932793Y5250400D01*
X2929356Y5245847D01*
X2592900D01*
Y5259900D01*
X2487100D01*
Y5245847D01*
X2465900D01*
Y5259900D01*
X2360100D01*
Y5167369D01*
X2347400Y5162109D01*
X2222979Y5286530D01*
X2222979Y5286531D01*
X2100580Y5408929D01*
Y5424393D01*
X2092073Y5444931D01*
X2076353Y5460650D01*
X2055815Y5469157D01*
D02*
G37*
G36*
X2286000Y3509624D02*
X2267047Y3501773D01*
X2251327Y3486053D01*
X2244200Y3468847D01*
X2231500Y3471373D01*
Y3507300D01*
X2191300D01*
Y3454400D01*
Y3401500D01*
X2231500D01*
Y3437427D01*
X2244200Y3439953D01*
X2251327Y3422747D01*
X2267047Y3407027D01*
X2286000Y3399176D01*
Y3454400D01*
Y3509624D01*
D02*
G37*
G36*
X2311400D02*
Y3467100D01*
X2353924D01*
X2346073Y3486053D01*
X2330353Y3501773D01*
X2311400Y3509624D01*
D02*
G37*
G36*
X2353924Y3441700D02*
X2311400D01*
Y3399176D01*
X2330353Y3407027D01*
X2346073Y3422747D01*
X2353924Y3441700D01*
D02*
G37*
G36*
X2007400Y3372900D02*
X1949700D01*
Y3312700D01*
X2007400D01*
Y3372900D01*
D02*
G37*
G36*
X1924300D02*
X1866600D01*
Y3312700D01*
X1924300D01*
Y3372900D01*
D02*
G37*
G36*
Y3287300D02*
X1866600D01*
Y3227100D01*
X1924300D01*
Y3287300D01*
D02*
G37*
G36*
X1751015Y3510280D02*
X1728785D01*
X1708247Y3501773D01*
X1692527Y3486053D01*
X1684020Y3465515D01*
Y3443285D01*
X1692527Y3422747D01*
X1708247Y3407027D01*
X1728785Y3398520D01*
X1751015D01*
X1771553Y3407027D01*
X1780080Y3415553D01*
X1832500D01*
Y3401500D01*
X2028299D01*
Y3401500D01*
X2035701D01*
Y3401500D01*
X2055853D01*
Y3332300D01*
X2056600Y3328546D01*
Y3238756D01*
X2056600Y3230831D01*
X2056597Y3230811D01*
X2044995Y3224457D01*
X2037455Y3231997D01*
X2016917Y3240504D01*
X2007400D01*
Y3287300D01*
X1949700D01*
Y3227100D01*
X1952658D01*
X1957651Y3214400D01*
X1950578Y3197324D01*
X2061025D01*
X2053789Y3214793D01*
X2053404Y3215724D01*
X2055083Y3219171D01*
X2060313Y3227099D01*
X2067755Y3227100D01*
X2197400D01*
Y3372900D01*
X2133546D01*
Y3401500D01*
X2165900D01*
Y3454400D01*
Y3507300D01*
X2035701D01*
Y3507300D01*
X2028299D01*
Y3507300D01*
X1832500D01*
Y3493247D01*
X1780080D01*
X1771553Y3501773D01*
X1751015Y3510280D01*
D02*
G37*
G36*
X972000Y2656800D02*
X914300D01*
Y2569100D01*
X972000D01*
Y2656800D01*
D02*
G37*
G36*
X888900D02*
X831200D01*
Y2569100D01*
X888900D01*
Y2656800D01*
D02*
G37*
G36*
X3562800Y2606000D02*
X3422000D01*
Y2555545D01*
X3394710D01*
X3389315Y2557780D01*
X3367085D01*
X3346547Y2549273D01*
X3330827Y2533553D01*
X3322320Y2513015D01*
Y2490785D01*
X3330827Y2470247D01*
X3346547Y2454527D01*
X3367085Y2446020D01*
X3389315D01*
X3403643Y2451955D01*
X3422000D01*
Y2405200D01*
X3562800D01*
Y2500353D01*
X3596200D01*
Y2451900D01*
X3657600D01*
X3719000D01*
Y2477800D01*
Y2600600D01*
X3596200D01*
Y2578046D01*
X3562800D01*
Y2606000D01*
D02*
G37*
G36*
X972000Y2543700D02*
X901600D01*
X831200D01*
Y2456000D01*
X840496D01*
X848982Y2443300D01*
X845678Y2435324D01*
X956125D01*
X952821Y2443300D01*
X961307Y2456000D01*
X972000D01*
Y2543700D01*
D02*
G37*
G36*
X3232800Y2606000D02*
X3092000D01*
Y2405200D01*
X3232800D01*
Y2606000D01*
D02*
G37*
G36*
X956125Y2409924D02*
X913601D01*
Y2367400D01*
X932555Y2375251D01*
X948274Y2390971D01*
X956125Y2409924D01*
D02*
G37*
G36*
X888201D02*
X845678D01*
X853529Y2390971D01*
X869248Y2375251D01*
X888201Y2367400D01*
Y2409924D01*
D02*
G37*
G36*
X3719000Y2426500D02*
X3657600D01*
X3596200D01*
Y2377800D01*
X3617958D01*
X3622818Y2366067D01*
X3622129Y2365378D01*
X3614278Y2346424D01*
X3724725D01*
X3716874Y2365378D01*
X3714739Y2367513D01*
X3719000Y2377800D01*
X3719000D01*
Y2426500D01*
D02*
G37*
G36*
X3724725Y2321024D02*
X3682201D01*
Y2278500D01*
X3701155Y2286351D01*
X3716874Y2302071D01*
X3724725Y2321024D01*
D02*
G37*
G36*
X3656801D02*
X3614278D01*
X3622129Y2302071D01*
X3637848Y2286351D01*
X3656801Y2278500D01*
Y2321024D01*
D02*
G37*
G36*
X2061025Y3171924D02*
X1950578D01*
X1958429Y3152971D01*
X1974148Y3137251D01*
X1978134Y3135600D01*
X1975608Y3122900D01*
X1961600D01*
Y2977100D01*
X1993153D01*
Y2666000D01*
X1996111Y2651134D01*
X2004531Y2638531D01*
X2324538Y2318525D01*
X2319100Y2298231D01*
Y2273769D01*
X2325431Y2250142D01*
X2337662Y2228958D01*
X2354958Y2211662D01*
X2376142Y2199431D01*
X2399769Y2193100D01*
X2424231D01*
X2447858Y2199431D01*
X2469042Y2211662D01*
X2486338Y2228958D01*
X2498569Y2250142D01*
X2504900Y2273769D01*
Y2298231D01*
X2498569Y2321858D01*
X2486338Y2343042D01*
X2469042Y2360338D01*
X2447858Y2372569D01*
X2424231Y2378900D01*
X2399769D01*
X2379475Y2373462D01*
X2070847Y2682091D01*
Y2977100D01*
X2102400D01*
Y3122900D01*
X2035995D01*
X2033469Y3135600D01*
X2037455Y3137251D01*
X2053174Y3152971D01*
X2061025Y3171924D01*
D02*
G37*
G36*
X467800Y2194200D02*
X419100D01*
Y2145500D01*
X467800D01*
Y2194200D01*
D02*
G37*
G36*
X291301Y2185748D02*
X272348Y2177897D01*
X256629Y2162178D01*
X248778Y2143224D01*
X291301D01*
Y2185748D01*
D02*
G37*
G36*
Y2117824D02*
X248778D01*
X256629Y2098871D01*
X272348Y2083151D01*
X291301Y2075300D01*
Y2117824D01*
D02*
G37*
G36*
X3232800Y2116000D02*
X3175100D01*
Y2028300D01*
X3232800D01*
Y2116000D01*
D02*
G37*
G36*
X3149700D02*
X3092000D01*
Y2028300D01*
X3149700D01*
Y2116000D01*
D02*
G37*
G36*
X3034501Y2033348D02*
Y1990824D01*
X3077025D01*
X3069174Y2009778D01*
X3053455Y2025497D01*
X3034501Y2033348D01*
D02*
G37*
G36*
X3009101D02*
X2990148Y2025497D01*
X2974429Y2009778D01*
X2966578Y1990824D01*
X3009101D01*
Y2033348D01*
D02*
G37*
G36*
X3077025Y1965424D02*
X3034501D01*
Y1922900D01*
X3053455Y1930751D01*
X3069174Y1946471D01*
X3077025Y1965424D01*
D02*
G37*
G36*
X3009101D02*
X2966578D01*
X2974429Y1946471D01*
X2990148Y1930751D01*
X3009101Y1922900D01*
Y1965424D01*
D02*
G37*
G36*
X3232800Y2002900D02*
X3175100D01*
Y1915200D01*
X3232800D01*
Y2002900D01*
D02*
G37*
G36*
X3149700D02*
X3092000D01*
Y1915200D01*
X3149700D01*
Y2002900D01*
D02*
G37*
G36*
X1014418Y1807687D02*
X973618Y1766887D01*
X1035631Y1704874D01*
X1076431Y1745674D01*
X1014418Y1807687D01*
D02*
G37*
G36*
X3562800Y2116000D02*
X3422000D01*
Y1970138D01*
X3153889Y1702027D01*
X3068522D01*
X3007808Y1762741D01*
X2865821Y1620754D01*
X2965381Y1521193D01*
X3068522Y1624334D01*
X3169980D01*
X3184846Y1627291D01*
X3197448Y1635711D01*
X3476937Y1915200D01*
X3562800D01*
Y2116000D01*
D02*
G37*
G36*
X1198224Y1574800D02*
X1155700D01*
Y1532276D01*
X1174653Y1540127D01*
X1190373Y1555847D01*
X1198224Y1574800D01*
D02*
G37*
G36*
X1094392Y1727714D02*
X1044611Y1677933D01*
X994831Y1628153D01*
X1056844Y1566140D01*
X1075387Y1584682D01*
X1087120Y1579822D01*
Y1576385D01*
X1095627Y1555847D01*
X1111347Y1540127D01*
X1130300Y1532276D01*
Y1587500D01*
X1143000D01*
Y1600200D01*
X1198224D01*
X1190373Y1619153D01*
X1174653Y1634873D01*
X1154115Y1643380D01*
X1150678D01*
X1145818Y1655113D01*
X1156405Y1665701D01*
X1094392Y1727714D01*
D02*
G37*
G36*
X2171700Y1535157D02*
Y1473200D01*
X2233657D01*
X2229262Y1489603D01*
X2219335Y1506797D01*
X2205297Y1520835D01*
X2188103Y1530762D01*
X2171700Y1535157D01*
D02*
G37*
G36*
X2146300D02*
X2129897Y1530762D01*
X2112703Y1520835D01*
X2098665Y1506797D01*
X2088738Y1489603D01*
X2084343Y1473200D01*
X2146300D01*
Y1535157D01*
D02*
G37*
G36*
X2233657Y1447800D02*
X2171700D01*
Y1385843D01*
X2188103Y1390238D01*
X2205297Y1400165D01*
X2219335Y1414203D01*
X2229262Y1431397D01*
X2233657Y1447800D01*
D02*
G37*
G36*
X2146300D02*
X2084343D01*
X2088738Y1431397D01*
X2098665Y1414203D01*
X2112703Y1400165D01*
X2129897Y1390238D01*
X2146300Y1385843D01*
Y1447800D01*
D02*
G37*
G36*
X2501101Y1385648D02*
X2482148Y1377797D01*
X2466429Y1362078D01*
X2458578Y1343124D01*
X2501101D01*
Y1385648D01*
D02*
G37*
G36*
X2661325Y1416258D02*
X2599312Y1354245D01*
X2640112Y1313445D01*
X2702125Y1375458D01*
X2661325Y1416258D01*
D02*
G37*
G36*
X1688301Y1322148D02*
Y1279624D01*
X1730825D01*
X1722974Y1298578D01*
X1707255Y1314297D01*
X1688301Y1322148D01*
D02*
G37*
G36*
X1662901D02*
X1643948Y1314297D01*
X1628229Y1298578D01*
X1620378Y1279624D01*
X1662901D01*
Y1322148D01*
D02*
G37*
G36*
X1914927Y1535900D02*
X1895073D01*
X1875897Y1530762D01*
X1858703Y1520835D01*
X1844665Y1506797D01*
X1834738Y1489603D01*
X1829600Y1470427D01*
Y1450573D01*
X1834738Y1431397D01*
X1844665Y1414203D01*
X1858703Y1400165D01*
X1866153Y1395864D01*
Y1373680D01*
X1857627Y1365153D01*
X1849120Y1344615D01*
Y1322385D01*
X1857627Y1301847D01*
X1873347Y1286127D01*
X1893885Y1277620D01*
X1916115D01*
X1936653Y1286127D01*
X1952373Y1301847D01*
X1960880Y1322385D01*
Y1344615D01*
X1952373Y1365153D01*
X1943847Y1373680D01*
Y1395864D01*
X1951297Y1400165D01*
X1965335Y1414203D01*
X1975262Y1431397D01*
X1980400Y1450573D01*
Y1470427D01*
X1975262Y1489603D01*
X1965335Y1506797D01*
X1951297Y1520835D01*
X1934103Y1530762D01*
X1914927Y1535900D01*
D02*
G37*
G36*
X2720086Y1357498D02*
X2658073Y1295485D01*
X2698873Y1254685D01*
X2760886Y1316698D01*
X2720086Y1357498D01*
D02*
G37*
G36*
X2526501Y1385648D02*
Y1330424D01*
X2513801D01*
Y1317724D01*
X2458578D01*
X2466429Y1298771D01*
X2482148Y1283051D01*
X2502686Y1274544D01*
X2507452D01*
X2519338Y1274271D01*
X2519338D01*
X2519339Y1274271D01*
X2560138Y1233471D01*
X2622151Y1295485D01*
X2581199Y1336438D01*
X2569681Y1341208D01*
Y1341539D01*
X2561174Y1362078D01*
X2545455Y1377797D01*
X2526501Y1385648D01*
D02*
G37*
G36*
X3214248Y1269081D02*
X3179812Y1234645D01*
X3214248Y1200209D01*
X3248684Y1234645D01*
X3214248Y1269081D01*
D02*
G37*
G36*
X2640112Y1277524D02*
X2578099Y1215511D01*
X2587430Y1206179D01*
X2582570Y1194446D01*
X2352000D01*
Y1226000D01*
X2151200D01*
Y1085200D01*
X2352000D01*
Y1116753D01*
X2763907D01*
X2796208Y1084451D01*
X2752684Y1040927D01*
X2852244Y941366D01*
X2994231Y1083353D01*
X2894670Y1182914D01*
X2851145Y1139389D01*
X2807466Y1183068D01*
X2794863Y1191489D01*
X2779997Y1194446D01*
X2655228D01*
X2650368Y1206179D01*
X2680912Y1236724D01*
X2640112Y1277524D01*
D02*
G37*
G36*
X1281115Y1236980D02*
X1258885D01*
X1238347Y1228473D01*
X1222627Y1212753D01*
X1222431Y1212279D01*
X1182784Y1172632D01*
X1127556Y1227860D01*
X1027995Y1128299D01*
X1086034Y1070260D01*
X1067303Y1051530D01*
X1033041Y1085791D01*
X989625Y1042375D01*
X946209Y998959D01*
X964523Y980645D01*
X1051355Y893812D01*
X1138188Y980645D01*
X1122240Y996592D01*
X1140971Y1015323D01*
X1169982Y986312D01*
X1269542Y1085873D01*
X1256033Y1099382D01*
X1282405Y1125754D01*
X1301653Y1133727D01*
X1317373Y1149447D01*
X1325880Y1169985D01*
Y1192215D01*
X1317373Y1212753D01*
X1301653Y1228473D01*
X1281115Y1236980D01*
D02*
G37*
G36*
X1862000Y1226000D02*
X1774300D01*
Y1168300D01*
X1862000D01*
Y1226000D01*
D02*
G37*
G36*
X1730825Y1254224D02*
X1620378D01*
X1628229Y1235271D01*
X1643948Y1219551D01*
X1661200Y1212405D01*
Y1168300D01*
X1748900D01*
Y1226000D01*
X1730297D01*
X1724395Y1238700D01*
X1730825Y1254224D01*
D02*
G37*
G36*
X888201Y1169748D02*
X869248Y1161897D01*
X853529Y1146178D01*
X845678Y1127224D01*
X888201D01*
Y1169748D01*
D02*
G37*
G36*
X3407225Y1139924D02*
X3364701D01*
Y1097400D01*
X3383655Y1105251D01*
X3399374Y1120971D01*
X3407225Y1139924D01*
D02*
G37*
G36*
X3148015Y1554480D02*
X3125785D01*
X3105247Y1545973D01*
X3089527Y1530253D01*
X3081020Y1509715D01*
Y1487485D01*
X3089527Y1466947D01*
X3105247Y1451227D01*
X3109186Y1449596D01*
X3135269Y1423512D01*
X3099166Y1387409D01*
X3198726Y1287848D01*
X3249326Y1338448D01*
X3266470Y1321303D01*
X3232209Y1287041D01*
X3275625Y1243625D01*
X3266645Y1234645D01*
X3275625Y1225665D01*
X3232209Y1182248D01*
X3266645Y1147812D01*
X3284022Y1165189D01*
X3296121Y1159328D01*
Y1141509D01*
X3304629Y1120971D01*
X3320348Y1105251D01*
X3339301Y1097400D01*
Y1152624D01*
X3352001D01*
Y1165324D01*
X3407225D01*
X3399374Y1184278D01*
X3383655Y1199997D01*
X3363117Y1208504D01*
X3345297D01*
X3342588Y1211921D01*
X3339436Y1220604D01*
X3424188Y1305355D01*
X3337355Y1392188D01*
X3321408Y1376240D01*
X3304263Y1393385D01*
X3340713Y1429835D01*
X3241153Y1529396D01*
X3208519Y1496762D01*
X3190811Y1514470D01*
X3184273Y1530253D01*
X3168553Y1545973D01*
X3148015Y1554480D01*
D02*
G37*
G36*
X1862000Y1142900D02*
X1774300D01*
Y1085200D01*
X1862000D01*
Y1142900D01*
D02*
G37*
G36*
X1748900D02*
X1661200D01*
Y1085200D01*
X1748900D01*
Y1142900D01*
D02*
G37*
G36*
X913601Y1169748D02*
Y1114524D01*
X900901D01*
Y1101824D01*
X845678D01*
X853529Y1082871D01*
X869248Y1067151D01*
X885087Y1060591D01*
X893812Y1051355D01*
X893812Y1051355D01*
X893812Y1051355D01*
X928248Y1016919D01*
X971665Y1060335D01*
X1015081Y1103752D01*
X980645Y1138188D01*
X968515Y1126058D01*
X954835Y1130339D01*
X948274Y1146178D01*
X932555Y1161897D01*
X913601Y1169748D01*
D02*
G37*
G36*
X1360901Y1461205D02*
X1261340Y1361644D01*
X1364480Y1258504D01*
Y1153873D01*
X1367437Y1139008D01*
X1375858Y1126405D01*
X1661200Y841063D01*
Y755200D01*
X1862000D01*
Y896000D01*
X1716137D01*
X1442173Y1169964D01*
Y1258504D01*
X1502887Y1319218D01*
X1360901Y1461205D01*
D02*
G37*
G36*
X2172500Y721800D02*
X2123800D01*
Y699812D01*
X2111100Y694552D01*
X2100955Y704697D01*
X2082001Y712548D01*
Y657324D01*
Y602100D01*
X2100955Y609951D01*
X2111100Y620097D01*
X2123800Y614836D01*
Y599000D01*
X2172500D01*
Y660400D01*
Y721800D01*
D02*
G37*
G36*
X2056601Y712548D02*
X2037648Y704697D01*
X2021929Y688978D01*
X2014078Y670024D01*
X2056601D01*
Y712548D01*
D02*
G37*
G36*
Y644624D02*
X2014078D01*
X2021929Y625671D01*
X2037648Y609951D01*
X2056601Y602100D01*
Y644624D01*
D02*
G37*
G36*
X2271715Y1008380D02*
X2249485D01*
X2228947Y999873D01*
X2213227Y984153D01*
X2204720Y963615D01*
Y941385D01*
X2204917Y940909D01*
Y896000D01*
X2151200D01*
Y755200D01*
X2246353D01*
Y721800D01*
X2197900D01*
Y660400D01*
Y599000D01*
X2346600D01*
Y721800D01*
X2324046D01*
Y755200D01*
X2352000D01*
Y896000D01*
X2308507D01*
Y922137D01*
X2316480Y941385D01*
Y963615D01*
X2307973Y984153D01*
X2292253Y999873D01*
X2271715Y1008380D01*
D02*
G37*
G36*
X3584822Y815400D02*
X3535178D01*
X3486144Y807634D01*
X3438928Y792293D01*
X3394694Y769754D01*
X3354531Y740574D01*
X3319426Y705469D01*
X3290246Y665306D01*
X3267707Y621072D01*
X3252366Y573856D01*
X3244600Y524822D01*
Y475178D01*
X3252366Y426144D01*
X3267707Y378928D01*
X3290246Y334694D01*
X3319426Y294531D01*
X3354531Y259426D01*
X3394694Y230246D01*
X3438928Y207707D01*
X3486144Y192366D01*
X3535178Y184600D01*
X3584822D01*
X3633856Y192366D01*
X3681072Y207707D01*
X3725306Y230246D01*
X3765469Y259426D01*
X3800574Y294531D01*
X3829754Y334694D01*
X3852293Y378928D01*
X3867634Y426144D01*
X3875400Y475178D01*
Y524822D01*
X3867634Y573856D01*
X3852293Y621072D01*
X3829754Y665306D01*
X3800574Y705469D01*
X3765469Y740574D01*
X3725306Y769754D01*
X3681072Y792293D01*
X3633856Y807634D01*
X3584822Y815400D01*
D02*
G37*
G36*
X524822D02*
X475178D01*
X426144Y807634D01*
X378928Y792293D01*
X334694Y769754D01*
X294531Y740574D01*
X259426Y705469D01*
X230246Y665306D01*
X207707Y621072D01*
X192366Y573856D01*
X184600Y524822D01*
Y475178D01*
X192366Y426144D01*
X207707Y378928D01*
X230246Y334694D01*
X259426Y294531D01*
X294531Y259426D01*
X334694Y230246D01*
X378928Y207707D01*
X426144Y192366D01*
X475178Y184600D01*
X524822D01*
X573856Y192366D01*
X621072Y207707D01*
X665306Y230246D01*
X705469Y259426D01*
X740574Y294531D01*
X769754Y334694D01*
X792293Y378928D01*
X807634Y426144D01*
X815400Y475178D01*
Y524822D01*
X807634Y573856D01*
X792293Y621072D01*
X769754Y665306D01*
X740574Y705469D01*
X705469Y740574D01*
X665306Y769754D01*
X621072Y792293D01*
X573856Y807634D01*
X524822Y815400D01*
D02*
G37*
%LPD*%
G36*
X3312000Y7318300D02*
X3292000D01*
Y7343700D01*
X3312000D01*
Y7318300D01*
D02*
G37*
G36*
X3058000D02*
X3038000D01*
Y7343700D01*
X3058000D01*
Y7318300D01*
D02*
G37*
G36*
G01X3262000Y7321001D02*
G01X3342000Y7321000D01*
G02X3302029Y7283244I-38863J1107D01*
G02X3262000Y7321001I-1138J38892D01*
D02*
G37*
G36*
G01X3342000Y7341000D02*
G01X3301972Y7341059D01*
G01X3262000Y7341000D01*
G02X3301972Y7378755I38862J-1107D01*
G02X3342000Y7341000I1140J-38888D01*
D02*
G37*
G36*
G01X3008000Y7321001D02*
G01X3088000Y7321000D01*
G02X3048029Y7283244I-38863J1107D01*
G02X3008000Y7321001I-1138J38892D01*
D02*
G37*
G36*
G01X3088000Y7341000D02*
G01X3047972Y7341059D01*
G01X3008000Y7341000D01*
G02X3047972Y7378755I38862J-1107D01*
G02X3088000Y7341000I1140J-38888D01*
D02*
G37*
D10*
X762000Y6223000D02*
D03*
X2222500Y7175500D02*
D03*
Y6540500D02*
D03*
X1905000Y5334000D02*
D03*
X762000Y5461000D02*
D03*
Y5715000D02*
D03*
Y5969000D02*
D03*
X3238500Y6159500D02*
D03*
X2730500Y6540500D02*
D03*
X2159000Y1460500D02*
D03*
X1905000Y5588000D02*
D03*
Y1460500D02*
D03*
Y6007100D02*
D03*
X2730500Y7175500D02*
D03*
D11*
X3003000Y6794500D02*
D03*
X3093000D02*
D03*
X2178600Y3454400D02*
D03*
X2088600D02*
D03*
X1975400D02*
D03*
X1885400D02*
D03*
D12*
X2000000Y6968048D02*
D03*
X1492000D02*
D03*
D13*
X1905000D02*
D03*
X1810000D02*
D03*
Y6747952D02*
D03*
X2000000D02*
D03*
X1397000Y6968048D02*
D03*
X1302000D02*
D03*
Y6747952D02*
D03*
X1492000D02*
D03*
D14*
X3619500Y6794500D02*
D03*
D15*
X1714500Y5752000D02*
D03*
Y5842000D02*
D03*
X2984500Y6114500D02*
D03*
Y6204500D02*
D03*
X1066800Y2037800D02*
D03*
Y2127800D02*
D03*
X1714500Y5424000D02*
D03*
Y5334000D02*
D03*
X2540000Y5117000D02*
D03*
Y5207000D02*
D03*
Y5424000D02*
D03*
Y5334000D02*
D03*
X2413000Y5207000D02*
D03*
Y5117000D02*
D03*
Y5334000D02*
D03*
Y5424000D02*
D03*
X3111500Y5860500D02*
D03*
Y5950500D02*
D03*
X2857500Y5860500D02*
D03*
Y5950500D02*
D03*
D16*
X2699000Y5336000D02*
D03*
X2794000Y5586000D02*
D03*
X2889000Y5336000D02*
D03*
X3080000D02*
D03*
X3175000Y5586000D02*
D03*
X3270000Y5336000D02*
D03*
X2127000Y3300000D02*
D03*
X2032000Y3050000D02*
D03*
X1937000Y3300000D02*
D03*
D17*
X1460500Y5434000D02*
D03*
X1555500Y5234000D02*
D03*
X1365500D02*
D03*
X1460500Y5742000D02*
D03*
X1365500Y5942000D02*
D03*
X1555500D02*
D03*
D18*
X3657600Y2439200D02*
D03*
Y2539200D02*
D03*
X406400Y2132800D02*
D03*
Y2032800D02*
D03*
X2768600Y6831800D02*
D03*
Y6731800D02*
D03*
D19*
X3266645Y1234645D02*
D03*
X3337355Y1305355D02*
D03*
D20*
X2185200Y660400D02*
D03*
X2285200D02*
D03*
X1955000Y6540500D02*
D03*
X1855000D02*
D03*
X1447000D02*
D03*
X1347000D02*
D03*
X2312200Y5816600D02*
D03*
X2412200D02*
D03*
D21*
X980645Y1051355D02*
D03*
X1051355Y980645D02*
D03*
D22*
X2558510Y6923000D02*
D03*
Y6858000D02*
D03*
Y6793000D02*
D03*
X2394490D02*
D03*
Y6858000D02*
D03*
X2476500Y6034000D02*
D03*
Y6099000D02*
D03*
X2312481D02*
D03*
Y5969000D02*
D03*
D23*
X2394490Y6923000D02*
D03*
X2476500Y5969000D02*
D03*
D24*
X3113000Y7143500D02*
D03*
X3048000D02*
D03*
X2983000D02*
D03*
Y6953500D02*
D03*
X3113000D02*
D03*
D25*
X1746000Y7366000D02*
D03*
X1556000D02*
D03*
D26*
X2251600Y825600D02*
D03*
Y1155600D02*
D03*
X1761600D02*
D03*
Y825600D02*
D03*
D27*
X3492400Y2505600D02*
D03*
X3162400D02*
D03*
Y2015600D02*
D03*
X3492400Y2015600D02*
D03*
X571600Y2066400D02*
D03*
X901600D02*
D03*
Y2556400D02*
D03*
X571600Y2556400D02*
D03*
D28*
X3219939Y1408622D02*
D03*
X2986594Y1641967D02*
D03*
X2640112Y1295485D02*
D03*
X2873457Y1062140D02*
D03*
D29*
X1148769Y1107086D02*
D03*
X1382114Y1340431D02*
D03*
X1035631Y1686914D02*
D03*
X802286Y1453568D02*
D03*
D30*
X382400Y5504600D02*
X591400D01*
X635000Y5461000D02*
X762000D01*
X591400Y5504600D02*
X635000Y5461000D01*
X1460500D02*
X1677500D01*
X753421D02*
X1460500D01*
X391600Y5895400D02*
X607000D01*
X660400Y5842000D02*
X1168400D01*
X607000Y5895400D02*
X660400Y5842000D01*
X2057400Y5715000D02*
X2348400Y5424000D01*
X2413000D01*
X2044700Y5413277D02*
X2061279Y5396698D01*
Y5393293D02*
X2195510Y5259062D01*
Y5259062D02*
Y5259062D01*
X2061279Y5393293D02*
Y5396698D01*
X2973959Y6066959D02*
Y6103959D01*
X2984500Y6114500D01*
X2857500Y5950500D02*
X2973959Y6066959D01*
X2549406Y5950500D02*
X2857500D01*
X2476500Y5969000D02*
X2530906D01*
X2549406Y5950500D01*
X2857500D02*
X3111500D01*
X2095500Y6923000D02*
X2394490D01*
X2206723Y6845300D02*
X2219423Y6858000D01*
X2197100Y6845300D02*
X2206723D01*
X2219423Y6858000D02*
X2394490D01*
X2222500Y6675416D02*
X2323804Y6776720D01*
X2125980D02*
X2323804D01*
X2340084Y6793000D01*
X2044700Y6858000D02*
X2125980Y6776720D01*
X2340084Y6793000D02*
X2394490D01*
X2195510Y5259062D02*
X2337572Y5117000D01*
X2413000D01*
X1752600Y6858000D02*
X2044700D01*
X1905000Y5168900D02*
Y5334000D01*
X2552700Y6787372D02*
X2558328Y6793000D01*
X2552700Y6667500D02*
Y6787372D01*
X2558328Y6793000D02*
X2558510D01*
X287000Y6000000D02*
X391600Y5895400D01*
X287000Y6200000D02*
X391000Y6096000D01*
X1689100D01*
X2255743Y6084056D02*
Y6093372D01*
X2261371Y6099000D02*
X2476500D01*
X2255743Y6093372D02*
X2261371Y6099000D01*
X1714500Y5842000D02*
X2013687D01*
X2255743Y6084056D01*
X768350Y6216650D02*
X1022350D01*
X1028700Y6210300D01*
X762000Y6223000D02*
X768350Y6216650D01*
X1739900Y3454400D02*
X1885400D01*
X762000Y5715000D02*
X1677500D01*
X751600Y5704600D02*
X762000Y5715000D01*
Y5969000D02*
X927100D01*
X571500Y2556500D02*
Y2743200D01*
Y2556500D02*
X571600Y2556400D01*
X287000Y5600000D02*
X382400Y5504600D01*
X1905000Y1333500D02*
Y1460500D01*
X2986594Y1641967D02*
X3007808Y1663180D01*
X3169980D01*
X3492400Y1985600D01*
Y2015600D01*
X2779997Y1155600D02*
X2873457Y1062140D01*
X2873457D01*
X2251600Y1155600D02*
X2779997D01*
X1403327Y1153873D02*
Y1319218D01*
Y1153873D02*
X1731600Y825600D01*
X1761600D01*
X1382114Y1340431D02*
X1403327Y1319218D01*
X901600Y1552882D02*
Y2066400D01*
X802286Y1453569D02*
X901600Y1552882D01*
X802286Y1453568D02*
Y1453569D01*
X2088600Y3454400D02*
X2094700Y3448300D01*
Y3332300D02*
Y3448300D01*
X1975400Y3454400D02*
X2088600D01*
X2094700Y3332300D02*
X2127000Y3300000D01*
X2032000Y2666000D02*
Y3050000D01*
Y2666000D02*
X2412000Y2286000D01*
X1066800Y2037800D02*
X1403800D01*
X1652000Y2286000D01*
X3492400Y2505600D02*
Y2506900D01*
X3524700Y2539200D02*
X3657600D01*
X3492400Y2506900D02*
X3524700Y2539200D01*
X3219939Y1408622D02*
X3234089D01*
X3337355Y1305355D01*
X2285200Y660400D02*
Y793300D01*
X2252900Y825600D02*
X2285200Y793300D01*
X2251600Y825600D02*
X2252900D01*
X1051355Y980645D02*
X1148769Y1078058D01*
Y1107086D01*
X539300Y2032800D02*
X571600Y2065100D01*
X406400Y2032800D02*
X539300D01*
X2540000Y5207000D02*
X2951000D01*
X2413000D02*
X2540000D01*
X2951000D02*
X3045200Y5301200D01*
X3080000Y5333500D02*
Y5336000D01*
X3047700Y5301200D02*
X3080000Y5333500D01*
X3045200Y5301200D02*
X3047700D01*
X2540000Y5334000D02*
X2697000D01*
X2413000D02*
X2540000D01*
X2697000D02*
X2699000Y5336000D01*
X2819400Y5715000D02*
X2857500Y5753100D01*
X2819400Y5611400D02*
Y5715000D01*
X2794000Y5586000D02*
X2819400Y5611400D01*
X2857500Y5753100D02*
Y5860500D01*
X3111500Y5748850D02*
X3142700Y5717650D01*
Y5618300D02*
X3175000Y5586000D01*
X3142700Y5618300D02*
Y5717650D01*
X3111500Y5748850D02*
Y5860500D01*
X1714500Y5334000D02*
X1905000D01*
X1677500Y5715000D02*
X1714500Y5752000D01*
X1677500Y5461000D02*
X1714500Y5424000D01*
X382400Y5704600D02*
X751600D01*
X287000Y5800000D02*
X382400Y5704600D01*
X487000Y6000000D02*
X503726Y5983274D01*
X747726D02*
X762000Y5969000D01*
X503726Y5983274D02*
X747726D01*
X510000Y6223000D02*
X762000D01*
X487000Y6200000D02*
X510000Y6223000D01*
X2311400Y7048500D02*
X2396900D01*
X2507400Y6923000D02*
X2558510D01*
X2501772Y6928628D02*
X2507400Y6923000D01*
X2501772Y6928628D02*
Y6943628D01*
X2396900Y7048500D02*
X2501772Y6943628D01*
X2222500Y6540500D02*
Y6675416D01*
X2730500Y6869900D02*
X2742400Y6858000D01*
X2730500Y6869900D02*
Y7175500D01*
X3302000Y6522000D02*
Y7296000D01*
X2984500Y6204500D02*
X3302000Y6522000D01*
X3048000Y7143500D02*
Y7296000D01*
X3049741Y7367741D02*
X3087841D01*
X3048000Y7366000D02*
X3049741Y7367741D01*
X3087841D02*
X3087841Y7367741D01*
X3300259D01*
X3302000Y7366000D01*
X3046259Y7367741D02*
X3048000Y7366000D01*
X2917659Y7367741D02*
X3046259D01*
X2532000Y7753400D02*
X2917659Y7367741D01*
X1642552Y6968048D02*
X1752600Y6858000D01*
X1492000Y6968048D02*
X1642552D01*
X2015907Y6923000D02*
X2095500D01*
Y6934200D02*
X2222500Y7061200D01*
X2095500Y6923000D02*
Y6934200D01*
X2000000Y6938907D02*
X2015907Y6923000D01*
X2000000Y6938907D02*
Y6968048D01*
X2222500Y7061200D02*
Y7175500D01*
X1810000Y6968048D02*
Y7092000D01*
X1556000Y7346000D02*
X1810000Y7092000D01*
X1556000Y7346000D02*
Y7366000D01*
X1302000Y6968048D02*
Y7092000D01*
X1556000Y7346000D01*
X3173313Y6114500D02*
X3218313Y6159500D01*
X3238500D01*
X2984500Y6114500D02*
X3173313D01*
D31*
X1955000Y6063540D02*
Y6576771D01*
X1905000Y6013540D02*
X1955000Y6063540D01*
X1993900Y6616700D02*
X2000000Y6622800D01*
Y6747952D01*
X1993900Y6615672D02*
Y6616700D01*
X698500Y4988500D02*
X2092900D01*
X2197100Y5092700D01*
Y5816600D02*
X2312200D01*
Y5968720D01*
X2312481Y5969000D01*
X1905000Y6007100D02*
Y6013540D01*
X1445862Y6526890D02*
X1492000Y6573029D01*
X698500Y2108200D02*
Y4988500D01*
Y1981200D02*
Y2108200D01*
X487000Y5200000D02*
X698500Y4988500D01*
X287000Y5400000D02*
X487000Y5200000D01*
X1955000Y6576771D02*
X1993900Y6615672D01*
X1445862Y6443685D02*
Y6526890D01*
X1492000Y6573029D02*
Y6747952D01*
X1556000Y7366000D02*
Y7729400D01*
X1532000Y7753400D02*
X1556000Y7729400D01*
D32*
X2742400Y6858000D02*
X2882900D01*
X2983000Y6814500D02*
X3003000Y6794500D01*
X2939500Y6858000D02*
X2983000Y6814500D01*
X2882900Y6858000D02*
X2939500D01*
X800100Y2209800D02*
X984800D01*
X1066800Y2127800D01*
X698500Y2108200D02*
X800100Y2209800D01*
X3490550Y2503750D02*
X3492400Y2505600D01*
X3380050Y2503750D02*
X3490550D01*
X3378200Y2501900D02*
X3380050Y2503750D01*
X3136900Y1495131D02*
Y1498600D01*
X3219939Y1408622D02*
Y1412091D01*
X3136900Y1495131D02*
X3219939Y1412091D01*
X2256712Y830712D02*
Y948612D01*
X2251600Y825600D02*
X2256712Y830712D01*
Y948612D02*
X2260600Y952500D01*
X571600Y2065100D02*
Y2066400D01*
Y2038900D02*
Y2065100D01*
X1183488Y1100086D02*
X1264501Y1181100D01*
X1148769Y1107086D02*
X1155769Y1100086D01*
X1183488D01*
X1264501Y1181100D02*
X1270000D01*
X693001Y1981200D02*
X698500D01*
X654901Y2019300D02*
X693001Y1981200D01*
X591200Y2019300D02*
X654901D01*
X571600Y2038900D02*
X591200Y2019300D01*
X3113000Y6814500D02*
Y6953500D01*
X3093000Y6794500D02*
X3113000Y6814500D01*
X2983000Y6814500D02*
Y6953500D01*
X2558510Y6858000D02*
X2742400D01*
D33*
X1532000Y7753400D02*
D03*
X2032000D02*
D03*
D34*
X2532000D02*
D03*
D35*
X500000Y500000D02*
D03*
X3560000Y8300000D02*
D03*
Y500000D02*
D03*
X500000Y8300000D02*
D03*
D36*
X1652000Y2286000D02*
D03*
D37*
X2412000D02*
D03*
D38*
X487000Y6200000D02*
D03*
D39*
Y6000000D02*
D03*
Y5800000D02*
D03*
Y5600000D02*
D03*
Y5400000D02*
D03*
Y5200000D02*
D03*
Y5000000D02*
D03*
Y4800000D02*
D03*
X287000Y6200000D02*
D03*
Y6000000D02*
D03*
Y5800000D02*
D03*
Y5600000D02*
D03*
Y5400000D02*
D03*
Y5200000D02*
D03*
Y5000000D02*
D03*
Y4800000D02*
D03*
Y4600000D02*
D03*
X487000D02*
D03*
Y4400000D02*
D03*
X287000D02*
D03*
D40*
X3669501Y2333724D02*
D03*
X3021801Y1978124D02*
D03*
X3352001Y1152624D02*
D03*
X2513801Y1330424D02*
D03*
X2069301Y657324D02*
D03*
X1675601Y1266924D02*
D03*
X900901Y1114524D02*
D03*
X1143000Y1587500D02*
D03*
X304001Y2130524D02*
D03*
X900901Y2422624D02*
D03*
X2298700Y3454400D02*
D03*
X2005801Y3184624D02*
D03*
X2636141Y5093500D02*
D03*
X3377401Y5445224D02*
D03*
X2832100Y5448300D02*
D03*
X1650201Y6753324D02*
D03*
X2640801Y6067524D02*
D03*
X2424901Y5711924D02*
D03*
X1916901Y5724624D02*
D03*
X1332701Y5115024D02*
D03*
X100801Y5203924D02*
D03*
X786601Y5178524D02*
D03*
X1231101Y6562824D02*
D03*
X1548601Y7172424D02*
D03*
X1866101Y7362924D02*
D03*
X2412201Y7147024D02*
D03*
X2133600Y6705600D02*
D03*
X3428201Y6613624D02*
D03*
X2794000Y6629400D02*
D03*
X2044700Y5413277D02*
D03*
X2197100Y6845300D02*
D03*
Y5092700D02*
D03*
X2057400Y5715000D02*
D03*
X1905000Y5168900D02*
D03*
X2552700Y6667500D02*
D03*
X1168400Y5842000D02*
D03*
X1689100Y6096000D02*
D03*
X2882900Y6858000D02*
D03*
X2197100Y5816600D02*
D03*
X1028700Y6210300D02*
D03*
X1739900Y3454400D02*
D03*
X927100Y5969000D02*
D03*
X571500Y2743200D02*
D03*
X1905000Y1333500D02*
D03*
X3378200Y2501900D02*
D03*
X3136900Y1498600D02*
D03*
X2260600Y952500D02*
D03*
X1270000Y1181100D02*
D03*
X698500Y1981200D02*
D03*
X1445862Y6443685D02*
D03*
X1993900Y6616700D02*
D03*
X2311400Y7048500D02*
D03*
X280000Y500000D02*
D03*
X360000Y340000D02*
D03*
X500000Y280000D02*
D03*
X640000Y340000D02*
D03*
X720000Y500000D02*
D03*
X640000Y660000D02*
D03*
X500000Y720000D02*
D03*
X360000Y660000D02*
D03*
X3340000Y8300000D02*
D03*
X3420000Y8140000D02*
D03*
X3560000Y8080000D02*
D03*
X3700000Y8140000D02*
D03*
X3780000Y8300000D02*
D03*
X3700000Y8460000D02*
D03*
X3560000Y8520000D02*
D03*
X3420000Y8460000D02*
D03*
X3340000Y500000D02*
D03*
X3420000Y340000D02*
D03*
X3560000Y280000D02*
D03*
X3700000Y340000D02*
D03*
X3780000Y500000D02*
D03*
X3700000Y660000D02*
D03*
X3560000Y720000D02*
D03*
X3420000Y660000D02*
D03*
X280000Y8300000D02*
D03*
X360000Y8140000D02*
D03*
X500000Y8080000D02*
D03*
X640000Y8140000D02*
D03*
X720000Y8300000D02*
D03*
X640000Y8460000D02*
D03*
X500000Y8520000D02*
D03*
X360000Y8460000D02*
D03*
%TF.MD5,abfc4817f12c0ccf47def9846bd88239*%
M02*
