%TF.GenerationSoftware,Altium Limited,Altium Designer,23.10.1 (27)*%
G04 Layer_Physical_Order=2*
G04 Layer_Color=16711680*
%FSLAX45Y45*%
%MOMM*%
%TF.SameCoordinates,4EA0ACC5-7561-4313-9172-BF3C26F0D282*%
%TF.FilePolarity,Positive*%
%TF.FileFunction,Copper,L2,Bot,Signal*%
%TF.Part,Single*%
G01*
G75*
%TA.AperFunction,Conductor*%
%ADD30C,0.25400*%
%ADD31C,0.76200*%
%ADD32C,0.50800*%
%TA.AperFunction,ComponentPad*%
%ADD33C,2.15000*%
%ADD34R,2.15000X2.15000*%
%ADD35C,5.80000*%
%ADD36R,1.35000X1.35000*%
%ADD37C,1.35000*%
%ADD38R,1.40000X1.40000*%
%ADD39C,1.40000*%
%TA.AperFunction,ViaPad*%
%ADD40C,0.60960*%
G36*
X3974044Y8795317D02*
X3997157Y8785743D01*
X4017958Y8771845D01*
X4035647Y8754155D01*
X4049546Y8733354D01*
X4059119Y8710242D01*
X4064000Y8685706D01*
Y8673198D01*
Y128637D01*
Y116129D01*
X4059119Y91593D01*
X4049546Y68480D01*
X4035647Y47680D01*
X4017958Y29990D01*
X3997157Y16091D01*
X3974044Y6518D01*
X3949508Y1637D01*
X3937000Y1638D01*
X114492D01*
X89955Y6518D01*
X66843Y16091D01*
X46042Y29990D01*
X28352Y47680D01*
X14454Y68480D01*
X4880Y91593D01*
X0Y116129D01*
Y128638D01*
Y8673198D01*
Y8685706D01*
X4880Y8710242D01*
X14454Y8733354D01*
X28352Y8754155D01*
X46042Y8771845D01*
X66843Y8785743D01*
X89955Y8795317D01*
X114492Y8800198D01*
X3949508D01*
X3974044Y8795317D01*
D02*
G37*
%LPC*%
G36*
X3584822Y8615400D02*
X3535178D01*
X3486144Y8607634D01*
X3438928Y8592292D01*
X3394694Y8569754D01*
X3354531Y8540573D01*
X3319426Y8505469D01*
X3290246Y8465306D01*
X3267707Y8421072D01*
X3252366Y8373856D01*
X3244600Y8324822D01*
Y8275178D01*
X3252366Y8226144D01*
X3267707Y8178928D01*
X3290246Y8134694D01*
X3319426Y8094531D01*
X3354531Y8059426D01*
X3394694Y8030246D01*
X3438928Y8007707D01*
X3486144Y7992366D01*
X3535178Y7984600D01*
X3584822D01*
X3633856Y7992366D01*
X3681072Y8007707D01*
X3725306Y8030246D01*
X3765469Y8059426D01*
X3800574Y8094531D01*
X3829754Y8134694D01*
X3852293Y8178928D01*
X3867634Y8226144D01*
X3875400Y8275178D01*
Y8324822D01*
X3867634Y8373856D01*
X3852293Y8421072D01*
X3829754Y8465306D01*
X3800574Y8505469D01*
X3765469Y8540573D01*
X3725306Y8569754D01*
X3681072Y8592292D01*
X3633856Y8607634D01*
X3584822Y8615400D01*
D02*
G37*
G36*
X524822D02*
X475178D01*
X426144Y8607634D01*
X378928Y8592292D01*
X334694Y8569754D01*
X294531Y8540573D01*
X259426Y8505469D01*
X230246Y8465306D01*
X207707Y8421072D01*
X192366Y8373856D01*
X184600Y8324822D01*
Y8275178D01*
X192366Y8226144D01*
X207707Y8178928D01*
X230246Y8134694D01*
X259426Y8094531D01*
X294531Y8059426D01*
X334694Y8030246D01*
X378928Y8007707D01*
X426144Y7992366D01*
X475178Y7984600D01*
X524822D01*
X573856Y7992366D01*
X621072Y8007707D01*
X665306Y8030246D01*
X705469Y8059426D01*
X740574Y8094531D01*
X769754Y8134694D01*
X792293Y8178928D01*
X807634Y8226144D01*
X815400Y8275178D01*
Y8324822D01*
X807634Y8373856D01*
X792293Y8421072D01*
X769754Y8465306D01*
X740574Y8505469D01*
X705469Y8540573D01*
X665306Y8569754D01*
X621072Y8592292D01*
X573856Y8607634D01*
X524822Y8615400D01*
D02*
G37*
G36*
X2049497Y7886300D02*
X2044700D01*
Y7766100D01*
X2164900D01*
Y7770897D01*
X2155843Y7804698D01*
X2138346Y7835003D01*
X2113603Y7859747D01*
X2083298Y7877243D01*
X2049497Y7886300D01*
D02*
G37*
G36*
X2019300D02*
X2014503D01*
X1980702Y7877243D01*
X1950397Y7859747D01*
X1925654Y7835003D01*
X1908157Y7804698D01*
X1899100Y7770897D01*
Y7766100D01*
X2019300D01*
Y7886300D01*
D02*
G37*
G36*
X2664900D02*
X2399100D01*
Y7620500D01*
X2664900D01*
Y7886300D01*
D02*
G37*
G36*
X2164900Y7740700D02*
X2044700D01*
Y7620500D01*
X2049497D01*
X2083298Y7629557D01*
X2113603Y7647054D01*
X2138346Y7671797D01*
X2155843Y7702102D01*
X2164900Y7735904D01*
Y7740700D01*
D02*
G37*
G36*
X2019300D02*
X1899100D01*
Y7735904D01*
X1908157Y7702102D01*
X1925654Y7671797D01*
X1950397Y7647054D01*
X1980702Y7629557D01*
X2014503Y7620500D01*
X2019300D01*
Y7740700D01*
D02*
G37*
G36*
X1549497Y7886300D02*
X1514503D01*
X1480702Y7877243D01*
X1450397Y7859747D01*
X1425653Y7835003D01*
X1408157Y7804698D01*
X1399100Y7770897D01*
Y7735904D01*
X1408157Y7702102D01*
X1425653Y7671797D01*
X1450397Y7647054D01*
X1480702Y7629557D01*
X1514503Y7620500D01*
X1549497D01*
X1583298Y7629557D01*
X1613603Y7647054D01*
X1638346Y7671797D01*
X1655843Y7702102D01*
X1664900Y7735904D01*
Y7770897D01*
X1655843Y7804698D01*
X1638346Y7835003D01*
X1613603Y7859747D01*
X1583298Y7877243D01*
X1549497Y7886300D01*
D02*
G37*
G36*
X1878801Y7418148D02*
Y7375624D01*
X1921325D01*
X1913474Y7394578D01*
X1897755Y7410297D01*
X1878801Y7418148D01*
D02*
G37*
G36*
X1853401D02*
X1834448Y7410297D01*
X1818729Y7394578D01*
X1810878Y7375624D01*
X1853401D01*
Y7418148D01*
D02*
G37*
G36*
X1921325Y7350224D02*
X1878801D01*
Y7307700D01*
X1897755Y7315551D01*
X1913474Y7331271D01*
X1921325Y7350224D01*
D02*
G37*
G36*
X1853401D02*
X1810878D01*
X1818729Y7331271D01*
X1834448Y7315551D01*
X1853401Y7307700D01*
Y7350224D01*
D02*
G37*
G36*
X1561301Y7227648D02*
Y7185124D01*
X1603825D01*
X1595974Y7204078D01*
X1580255Y7219797D01*
X1561301Y7227648D01*
D02*
G37*
G36*
X1535901D02*
X1516948Y7219797D01*
X1501229Y7204078D01*
X1493378Y7185124D01*
X1535901D01*
Y7227648D01*
D02*
G37*
G36*
X2424901Y7202248D02*
Y7159724D01*
X2467425D01*
X2459574Y7178678D01*
X2443855Y7194397D01*
X2424901Y7202248D01*
D02*
G37*
G36*
X2399501D02*
X2380548Y7194397D01*
X2364829Y7178678D01*
X2356978Y7159724D01*
X2399501D01*
Y7202248D01*
D02*
G37*
G36*
X1603825Y7159724D02*
X1561301D01*
Y7117200D01*
X1580255Y7125051D01*
X1595974Y7140771D01*
X1603825Y7159724D01*
D02*
G37*
G36*
X1535901D02*
X1493378D01*
X1501229Y7140771D01*
X1516948Y7125051D01*
X1535901Y7117200D01*
Y7159724D01*
D02*
G37*
G36*
X2467425Y7134324D02*
X2424901D01*
Y7091800D01*
X2443855Y7099651D01*
X2459574Y7115371D01*
X2467425Y7134324D01*
D02*
G37*
G36*
X2399501D02*
X2356978D01*
X2364829Y7115371D01*
X2380548Y7099651D01*
X2399501Y7091800D01*
Y7134324D01*
D02*
G37*
G36*
X2322515Y7104380D02*
X2300285D01*
X2279747Y7095873D01*
X2271220Y7087347D01*
X1447800D01*
X1432934Y7084389D01*
X1420331Y7075969D01*
X709131Y6364769D01*
X700711Y6352166D01*
X697753Y6337300D01*
Y5330775D01*
X590776Y5223797D01*
X578508Y5227084D01*
X575899Y5236823D01*
X563339Y5258577D01*
X545577Y5276339D01*
X523823Y5288898D01*
X506926Y5293426D01*
Y5306574D01*
X523823Y5311102D01*
X545577Y5323661D01*
X563339Y5341423D01*
X575899Y5363177D01*
X582362Y5387300D01*
X487000D01*
Y5412700D01*
X582362D01*
X575899Y5436823D01*
X563339Y5458577D01*
X545577Y5476339D01*
X523823Y5488899D01*
X506927Y5493426D01*
Y5506574D01*
X523823Y5511102D01*
X545577Y5523661D01*
X563339Y5541423D01*
X575899Y5563177D01*
X582400Y5587440D01*
Y5612560D01*
X575899Y5636823D01*
X563339Y5658577D01*
X545577Y5676339D01*
X523823Y5688898D01*
X506926Y5693426D01*
Y5706574D01*
X523823Y5711102D01*
X545577Y5723661D01*
X563339Y5741423D01*
X575899Y5763177D01*
X582400Y5787441D01*
Y5812560D01*
X575899Y5836823D01*
X563339Y5858577D01*
X545577Y5876339D01*
X523823Y5888899D01*
X506926Y5893426D01*
Y5906574D01*
X523823Y5911102D01*
X545577Y5923661D01*
X563339Y5941423D01*
X575899Y5963177D01*
X582400Y5987441D01*
Y6012560D01*
X575899Y6036823D01*
X563339Y6058577D01*
X545577Y6076339D01*
X523823Y6088899D01*
X512621Y6091900D01*
X514293Y6104600D01*
X582400D01*
Y6295400D01*
X391600D01*
Y6227292D01*
X378900Y6225621D01*
X375898Y6236823D01*
X363339Y6258577D01*
X345577Y6276339D01*
X323823Y6288899D01*
X299559Y6295400D01*
X274440D01*
X250177Y6288899D01*
X228423Y6276339D01*
X210661Y6258577D01*
X198101Y6236823D01*
X191600Y6212560D01*
Y6187441D01*
X198101Y6163177D01*
X210661Y6141423D01*
X228423Y6123661D01*
X250177Y6111102D01*
X267073Y6106574D01*
Y6093426D01*
X250177Y6088899D01*
X228423Y6076339D01*
X210661Y6058577D01*
X198101Y6036823D01*
X191600Y6012560D01*
Y5987441D01*
X198101Y5963177D01*
X210661Y5941423D01*
X228423Y5923661D01*
X250177Y5911102D01*
X267074Y5906574D01*
Y5893426D01*
X250177Y5888899D01*
X228423Y5876339D01*
X210661Y5858577D01*
X198101Y5836823D01*
X191600Y5812560D01*
Y5787441D01*
X198101Y5763177D01*
X210661Y5741423D01*
X228423Y5723661D01*
X250177Y5711102D01*
X267074Y5706574D01*
Y5693426D01*
X250177Y5688898D01*
X228423Y5676339D01*
X210661Y5658577D01*
X198101Y5636823D01*
X191600Y5612560D01*
Y5587440D01*
X198101Y5563177D01*
X210661Y5541423D01*
X228423Y5523661D01*
X250177Y5511102D01*
X267073Y5506574D01*
Y5493426D01*
X250177Y5488899D01*
X228423Y5476339D01*
X210661Y5458577D01*
X198101Y5436823D01*
X191600Y5412560D01*
Y5387441D01*
X198101Y5363177D01*
X210661Y5341423D01*
X228423Y5323661D01*
X250177Y5311102D01*
X267074Y5306574D01*
Y5293426D01*
X250177Y5288898D01*
X228423Y5276339D01*
X210661Y5258577D01*
X198101Y5236823D01*
X191638Y5212700D01*
X287000D01*
Y5187300D01*
X191638D01*
X198101Y5163177D01*
X210661Y5141423D01*
X228423Y5123661D01*
X250177Y5111102D01*
X267073Y5106574D01*
Y5093426D01*
X250177Y5088899D01*
X228423Y5076339D01*
X210661Y5058577D01*
X198101Y5036823D01*
X191600Y5012560D01*
Y4987441D01*
X198101Y4963177D01*
X210661Y4941423D01*
X228423Y4923661D01*
X250177Y4911102D01*
X267074Y4906574D01*
Y4893426D01*
X250177Y4888899D01*
X228423Y4876339D01*
X210661Y4858577D01*
X198101Y4836823D01*
X191600Y4812560D01*
Y4787441D01*
X198101Y4763177D01*
X210661Y4741423D01*
X228423Y4723661D01*
X250177Y4711102D01*
X267073Y4706574D01*
Y4693426D01*
X250177Y4688899D01*
X228423Y4676339D01*
X210661Y4658577D01*
X198101Y4636823D01*
X191600Y4612560D01*
Y4587441D01*
X198101Y4563177D01*
X210661Y4541423D01*
X228423Y4523661D01*
X250177Y4511102D01*
X267074Y4506574D01*
Y4493426D01*
X250177Y4488899D01*
X228423Y4476339D01*
X210661Y4458577D01*
X198101Y4436823D01*
X191600Y4412560D01*
Y4387441D01*
X198101Y4363177D01*
X210661Y4341423D01*
X228423Y4323661D01*
X250177Y4311102D01*
X274440Y4304600D01*
X299559D01*
X323823Y4311102D01*
X345577Y4323661D01*
X363339Y4341423D01*
X375898Y4363177D01*
X380426Y4380074D01*
X393574D01*
X398102Y4363177D01*
X410661Y4341423D01*
X428423Y4323661D01*
X450177Y4311102D01*
X474441Y4304600D01*
X499560D01*
X523823Y4311102D01*
X545577Y4323661D01*
X563339Y4341423D01*
X575899Y4363177D01*
X582400Y4387441D01*
Y4412560D01*
X575899Y4436823D01*
X563339Y4458577D01*
X545577Y4476339D01*
X523823Y4488899D01*
X506926Y4493426D01*
Y4506574D01*
X523823Y4511102D01*
X545577Y4523661D01*
X563339Y4541423D01*
X575899Y4563177D01*
X582400Y4587441D01*
Y4612560D01*
X575899Y4636823D01*
X563339Y4658577D01*
X545577Y4676339D01*
X523823Y4688899D01*
X506927Y4693426D01*
Y4706574D01*
X523823Y4711102D01*
X545577Y4723661D01*
X563339Y4741423D01*
X575899Y4763177D01*
X582400Y4787441D01*
Y4812560D01*
X575899Y4836823D01*
X563339Y4858577D01*
X545577Y4876339D01*
X523823Y4888899D01*
X506926Y4893426D01*
Y4906574D01*
X523823Y4911102D01*
X545577Y4923661D01*
X563339Y4941423D01*
X575899Y4963177D01*
X582400Y4987441D01*
Y5012560D01*
X575899Y5036823D01*
X563339Y5058577D01*
X549385Y5072531D01*
X764069Y5287215D01*
X772489Y5299818D01*
X775447Y5314684D01*
Y6321209D01*
X1463891Y7009653D01*
X2271220D01*
X2279747Y7001127D01*
X2300285Y6992620D01*
X2322515D01*
X2343053Y7001127D01*
X2358773Y7016847D01*
X2367280Y7037385D01*
Y7059615D01*
X2358773Y7080153D01*
X2343053Y7095873D01*
X2322515Y7104380D01*
D02*
G37*
G36*
X2209800Y6900524D02*
Y6858000D01*
X2252324D01*
X2244473Y6876953D01*
X2228753Y6892673D01*
X2209800Y6900524D01*
D02*
G37*
G36*
X2184400D02*
X2165447Y6892673D01*
X2149727Y6876953D01*
X2141876Y6858000D01*
X2184400D01*
Y6900524D01*
D02*
G37*
G36*
X2894015Y6913880D02*
X2871785D01*
X2861923Y6909795D01*
X2514600D01*
X2494779Y6905853D01*
X2477975Y6894625D01*
X2251846Y6668495D01*
X2192115D01*
X2183975Y6681195D01*
X2188824Y6692900D01*
X2078376D01*
X2083225Y6681195D01*
X2075085Y6668495D01*
X2030680D01*
X2018676Y6676516D01*
X1993900Y6681444D01*
X1969124Y6676516D01*
X1948119Y6662481D01*
X1946048Y6659382D01*
X1795095Y6508429D01*
X1445862D01*
X1421085Y6503501D01*
X1400081Y6489466D01*
X1386046Y6468461D01*
X1381118Y6443685D01*
X1386046Y6418908D01*
X1400081Y6397904D01*
X1421085Y6383869D01*
X1445862Y6378941D01*
X1795095D01*
X2132356Y6041680D01*
Y5816600D01*
Y5092700D01*
X2137284Y5067924D01*
X2151319Y5046919D01*
X2172324Y5032884D01*
X2197100Y5027956D01*
X2221876Y5032884D01*
X2242881Y5046919D01*
X2256916Y5067924D01*
X2261844Y5092700D01*
Y5816600D01*
Y6068498D01*
X2256916Y6093275D01*
X2242881Y6114279D01*
X1913475Y6443685D01*
X2034695Y6564905D01*
X2273300D01*
X2293121Y6568847D01*
X2309925Y6580075D01*
X2536054Y6806205D01*
X2861923D01*
X2871785Y6802120D01*
X2894015D01*
X2914553Y6810627D01*
X2930273Y6826347D01*
X2938780Y6846885D01*
Y6869115D01*
X2930273Y6889653D01*
X2914553Y6905373D01*
X2894015Y6913880D01*
D02*
G37*
G36*
X2252324Y6832600D02*
X2209800D01*
Y6790076D01*
X2228753Y6797927D01*
X2244473Y6813647D01*
X2252324Y6832600D01*
D02*
G37*
G36*
X2184400D02*
X2141876D01*
X2149727Y6813647D01*
X2165447Y6797927D01*
X2184400Y6790076D01*
Y6832600D01*
D02*
G37*
G36*
X1662901Y6808548D02*
Y6766024D01*
X1705425D01*
X1697574Y6784978D01*
X1681855Y6800697D01*
X1662901Y6808548D01*
D02*
G37*
G36*
X1637501D02*
X1618548Y6800697D01*
X1602829Y6784978D01*
X1594978Y6766024D01*
X1637501D01*
Y6808548D01*
D02*
G37*
G36*
X2146300Y6760824D02*
Y6718300D01*
X2188824D01*
X2180973Y6737253D01*
X2165253Y6752973D01*
X2146300Y6760824D01*
D02*
G37*
G36*
X2120900D02*
X2101947Y6752973D01*
X2086227Y6737253D01*
X2078376Y6718300D01*
X2120900D01*
Y6760824D01*
D02*
G37*
G36*
X1705425Y6740624D02*
X1662901D01*
Y6698100D01*
X1681855Y6705951D01*
X1697574Y6721671D01*
X1705425Y6740624D01*
D02*
G37*
G36*
X1637501D02*
X1594978D01*
X1602829Y6721671D01*
X1618548Y6705951D01*
X1637501Y6698100D01*
Y6740624D01*
D02*
G37*
G36*
X2806700Y6684624D02*
Y6642100D01*
X2849224D01*
X2841373Y6661053D01*
X2825653Y6676773D01*
X2806700Y6684624D01*
D02*
G37*
G36*
X2781300D02*
X2762347Y6676773D01*
X2746627Y6661053D01*
X2738776Y6642100D01*
X2781300D01*
Y6684624D01*
D02*
G37*
G36*
X3440901Y6668848D02*
Y6626324D01*
X3483425D01*
X3475574Y6645278D01*
X3459855Y6660997D01*
X3440901Y6668848D01*
D02*
G37*
G36*
X3415501D02*
X3396548Y6660997D01*
X3380829Y6645278D01*
X3372978Y6626324D01*
X3415501D01*
Y6668848D01*
D02*
G37*
G36*
X1243801Y6618048D02*
Y6575524D01*
X1286325D01*
X1278474Y6594478D01*
X1262755Y6610197D01*
X1243801Y6618048D01*
D02*
G37*
G36*
X1218401D02*
X1199448Y6610197D01*
X1183729Y6594478D01*
X1175878Y6575524D01*
X1218401D01*
Y6618048D01*
D02*
G37*
G36*
X2849224Y6616700D02*
X2806700D01*
Y6574176D01*
X2825653Y6582027D01*
X2841373Y6597747D01*
X2849224Y6616700D01*
D02*
G37*
G36*
X2781300D02*
X2738776D01*
X2746627Y6597747D01*
X2762347Y6582027D01*
X2781300Y6574176D01*
Y6616700D01*
D02*
G37*
G36*
X3483425Y6600924D02*
X3440901D01*
Y6558400D01*
X3459855Y6566251D01*
X3475574Y6581971D01*
X3483425Y6600924D01*
D02*
G37*
G36*
X3415501D02*
X3372978D01*
X3380829Y6581971D01*
X3396548Y6566251D01*
X3415501Y6558400D01*
Y6600924D01*
D02*
G37*
G36*
X1286325Y6550124D02*
X1243801D01*
Y6507600D01*
X1262755Y6515451D01*
X1278474Y6531171D01*
X1286325Y6550124D01*
D02*
G37*
G36*
X1218401D02*
X1175878D01*
X1183729Y6531171D01*
X1199448Y6515451D01*
X1218401Y6507600D01*
Y6550124D01*
D02*
G37*
G36*
X2653501Y6122748D02*
Y6080224D01*
X2696025D01*
X2688174Y6099178D01*
X2672455Y6114897D01*
X2653501Y6122748D01*
D02*
G37*
G36*
X2696025Y6054824D02*
X2653501D01*
Y6012300D01*
X2672455Y6020151D01*
X2688174Y6035871D01*
X2696025Y6054824D01*
D02*
G37*
G36*
X2563815Y6723380D02*
X2541585D01*
X2521047Y6714873D01*
X2505327Y6699153D01*
X2496820Y6678615D01*
Y6656385D01*
X2505327Y6635847D01*
X2513853Y6627320D01*
Y5172291D01*
X2282609Y4941047D01*
X2187791D01*
X1960880Y5167957D01*
Y5180015D01*
X1952373Y5200553D01*
X1936653Y5216273D01*
X1916115Y5224780D01*
X1893885D01*
X1873347Y5216273D01*
X1857627Y5200553D01*
X1849120Y5180015D01*
Y5157785D01*
X1857627Y5137247D01*
X1873347Y5121527D01*
X1893885Y5113020D01*
X1905943D01*
X2144231Y4874731D01*
X2156834Y4866311D01*
X2171700Y4863353D01*
X2298700D01*
X2313566Y4866311D01*
X2326169Y4874731D01*
X2573912Y5122474D01*
X2584678Y5115280D01*
X2580917Y5106200D01*
X2623441D01*
Y5148723D01*
X2604487Y5140872D01*
X2599461Y5135846D01*
X2593873Y5138667D01*
X2588987Y5143333D01*
X2591547Y5156200D01*
Y6019792D01*
X2604247Y6025053D01*
X2609148Y6020151D01*
X2628101Y6012300D01*
Y6067524D01*
Y6122748D01*
X2609148Y6114897D01*
X2604247Y6109995D01*
X2591547Y6115256D01*
Y6627320D01*
X2600073Y6635847D01*
X2608580Y6656385D01*
Y6678615D01*
X2600073Y6699153D01*
X2584353Y6714873D01*
X2563815Y6723380D01*
D02*
G37*
G36*
X1039815Y6266180D02*
X1017585D01*
X997047Y6257673D01*
X981327Y6241953D01*
X972820Y6221415D01*
Y6199185D01*
X981327Y6178647D01*
X989853Y6170120D01*
Y5996708D01*
X977153Y5994182D01*
X974473Y6000653D01*
X958753Y6016373D01*
X938215Y6024880D01*
X915985D01*
X895447Y6016373D01*
X879727Y6000653D01*
X871220Y5980115D01*
Y5957885D01*
X879727Y5937347D01*
X888253Y5928820D01*
Y3114891D01*
X572443Y2799080D01*
X560385D01*
X539847Y2790573D01*
X524127Y2774853D01*
X515620Y2754315D01*
Y2732085D01*
X524127Y2711547D01*
X539847Y2695827D01*
X560385Y2687320D01*
X582615D01*
X603153Y2695827D01*
X618873Y2711547D01*
X627380Y2732085D01*
Y2744143D01*
X954569Y3071331D01*
X962989Y3083934D01*
X965947Y3098800D01*
Y5928820D01*
X974473Y5937347D01*
X977153Y5943818D01*
X989853Y5941292D01*
Y4025900D01*
X992811Y4011034D01*
X1001231Y3998431D01*
X1572731Y3426931D01*
X1585334Y3418511D01*
X1600200Y3415553D01*
X1699720D01*
X1708247Y3407027D01*
X1728785Y3398520D01*
X1751015D01*
X1771553Y3407027D01*
X1787273Y3422747D01*
X1795780Y3443285D01*
Y3465515D01*
X1787273Y3486053D01*
X1771553Y3501773D01*
X1751015Y3510280D01*
X1728785D01*
X1708247Y3501773D01*
X1699720Y3493247D01*
X1616291D01*
X1067547Y4041991D01*
Y6170120D01*
X1076073Y6178647D01*
X1084580Y6199185D01*
Y6221415D01*
X1076073Y6241953D01*
X1060353Y6257673D01*
X1039815Y6266180D01*
D02*
G37*
G36*
X1904201Y5779848D02*
X1885248Y5771997D01*
X1869529Y5756278D01*
X1861678Y5737324D01*
X1904201D01*
Y5779848D01*
D02*
G37*
G36*
X2437601Y5767148D02*
Y5724624D01*
X2480125D01*
X2472274Y5743578D01*
X2456555Y5759297D01*
X2437601Y5767148D01*
D02*
G37*
G36*
X2412201D02*
X2393248Y5759297D01*
X2377529Y5743578D01*
X2369678Y5724624D01*
X2412201D01*
Y5767148D01*
D02*
G37*
G36*
X1972125Y5711924D02*
X1929601D01*
Y5669400D01*
X1948555Y5677251D01*
X1964274Y5692971D01*
X1972125Y5711924D01*
D02*
G37*
G36*
X1904201D02*
X1861678D01*
X1869529Y5692971D01*
X1885248Y5677251D01*
X1904201Y5669400D01*
Y5711924D01*
D02*
G37*
G36*
X1700215Y6151880D02*
X1677985D01*
X1657447Y6143373D01*
X1641727Y6127653D01*
X1633220Y6107115D01*
Y6084885D01*
X1641727Y6064347D01*
X1657447Y6048627D01*
X1677985Y6040120D01*
X1683693D01*
X1931576Y5792237D01*
X1930333Y5788141D01*
X1929601Y5787020D01*
Y5737324D01*
X1979298D01*
X1980418Y5738056D01*
X1984515Y5739298D01*
X2001520Y5722293D01*
Y5703885D01*
X2010027Y5683347D01*
X2025747Y5667627D01*
X2046285Y5659120D01*
X2068515D01*
X2089053Y5667627D01*
X2104773Y5683347D01*
X2113280Y5703885D01*
Y5726115D01*
X2104773Y5746653D01*
X2089053Y5762373D01*
X2068515Y5770880D01*
X2062807D01*
X1744980Y6088707D01*
Y6107115D01*
X1736473Y6127653D01*
X1720753Y6143373D01*
X1700215Y6151880D01*
D02*
G37*
G36*
X2480125Y5699224D02*
X2437601D01*
Y5656700D01*
X2456555Y5664551D01*
X2472274Y5680271D01*
X2480125Y5699224D01*
D02*
G37*
G36*
X2412201D02*
X2369678D01*
X2377529Y5680271D01*
X2393248Y5664551D01*
X2412201Y5656700D01*
Y5699224D01*
D02*
G37*
G36*
X2844800Y5503524D02*
Y5461000D01*
X2887324D01*
X2879473Y5479953D01*
X2863753Y5495673D01*
X2844800Y5503524D01*
D02*
G37*
G36*
X2819400D02*
X2800447Y5495673D01*
X2784727Y5479953D01*
X2776876Y5461000D01*
X2819400D01*
Y5503524D01*
D02*
G37*
G36*
X3390101Y5500448D02*
Y5457924D01*
X3432625D01*
X3424774Y5476878D01*
X3409055Y5492597D01*
X3390101Y5500448D01*
D02*
G37*
G36*
X3364701D02*
X3345748Y5492597D01*
X3330029Y5476878D01*
X3322178Y5457924D01*
X3364701D01*
Y5500448D01*
D02*
G37*
G36*
X2887324Y5435600D02*
X2844800D01*
Y5393076D01*
X2863753Y5400927D01*
X2879473Y5416647D01*
X2887324Y5435600D01*
D02*
G37*
G36*
X2819400D02*
X2776876D01*
X2784727Y5416647D01*
X2800447Y5400927D01*
X2819400Y5393076D01*
Y5435600D01*
D02*
G37*
G36*
X3432625Y5432524D02*
X3390101D01*
Y5390000D01*
X3409055Y5397851D01*
X3424774Y5413571D01*
X3432625Y5432524D01*
D02*
G37*
G36*
X3364701D02*
X3322178D01*
X3330029Y5413571D01*
X3345748Y5397851D01*
X3364701Y5390000D01*
Y5432524D01*
D02*
G37*
G36*
X1179515Y5897880D02*
X1157285D01*
X1136747Y5889373D01*
X1121027Y5873653D01*
X1112520Y5853115D01*
Y5830885D01*
X1121027Y5810347D01*
X1136747Y5794627D01*
X1157285Y5786120D01*
X1179515D01*
X1200053Y5794627D01*
X1208580Y5803153D01*
X1599887D01*
X1988820Y5414221D01*
Y5402162D01*
X1997327Y5381624D01*
X2013047Y5365905D01*
X2033585Y5357397D01*
X2055815D01*
X2076353Y5365905D01*
X2092073Y5381624D01*
X2100580Y5402162D01*
Y5424393D01*
X2092073Y5444931D01*
X2076353Y5460650D01*
X2055815Y5469157D01*
X2043757D01*
X1643446Y5869469D01*
X1630844Y5877889D01*
X1615978Y5880847D01*
X1208580D01*
X1200053Y5889373D01*
X1179515Y5897880D01*
D02*
G37*
G36*
X113501Y5259148D02*
Y5216624D01*
X156025D01*
X148174Y5235578D01*
X132455Y5251297D01*
X113501Y5259148D01*
D02*
G37*
G36*
X88101D02*
X69148Y5251297D01*
X53429Y5235578D01*
X45578Y5216624D01*
X88101D01*
Y5259148D01*
D02*
G37*
G36*
X799301Y5233748D02*
Y5191224D01*
X841825D01*
X833974Y5210178D01*
X818255Y5225897D01*
X799301Y5233748D01*
D02*
G37*
G36*
X773901D02*
X754948Y5225897D01*
X739229Y5210178D01*
X731378Y5191224D01*
X773901D01*
Y5233748D01*
D02*
G37*
G36*
X156025Y5191224D02*
X113501D01*
Y5148700D01*
X132455Y5156551D01*
X148174Y5172271D01*
X156025Y5191224D01*
D02*
G37*
G36*
X88101D02*
X45578D01*
X53429Y5172271D01*
X69148Y5156551D01*
X88101Y5148700D01*
Y5191224D01*
D02*
G37*
G36*
X1345401Y5170248D02*
Y5127724D01*
X1387925D01*
X1380074Y5146678D01*
X1364355Y5162397D01*
X1345401Y5170248D01*
D02*
G37*
G36*
X1320001D02*
X1301048Y5162397D01*
X1285329Y5146678D01*
X1277478Y5127724D01*
X1320001D01*
Y5170248D01*
D02*
G37*
G36*
X841825Y5165824D02*
X799301D01*
Y5123300D01*
X818255Y5131151D01*
X833974Y5146871D01*
X841825Y5165824D01*
D02*
G37*
G36*
X773901D02*
X731378D01*
X739229Y5146871D01*
X754948Y5131151D01*
X773901Y5123300D01*
Y5165824D01*
D02*
G37*
G36*
X2648841Y5148723D02*
Y5106200D01*
X2691364D01*
X2683513Y5125153D01*
X2667794Y5140872D01*
X2648841Y5148723D01*
D02*
G37*
G36*
X1387925Y5102324D02*
X1345401D01*
Y5059800D01*
X1364355Y5067651D01*
X1380074Y5083371D01*
X1387925Y5102324D01*
D02*
G37*
G36*
X1320001D02*
X1277478D01*
X1285329Y5083371D01*
X1301048Y5067651D01*
X1320001Y5059800D01*
Y5102324D01*
D02*
G37*
G36*
X2691364Y5080800D02*
X2648841D01*
Y5038276D01*
X2667794Y5046127D01*
X2683513Y5061846D01*
X2691364Y5080800D01*
D02*
G37*
G36*
X2623441D02*
X2580917D01*
X2588768Y5061846D01*
X2604487Y5046127D01*
X2623441Y5038276D01*
Y5080800D01*
D02*
G37*
G36*
X2311400Y3509624D02*
Y3467100D01*
X2353924D01*
X2346073Y3486053D01*
X2330353Y3501773D01*
X2311400Y3509624D01*
D02*
G37*
G36*
X2286000D02*
X2267047Y3501773D01*
X2251327Y3486053D01*
X2243476Y3467100D01*
X2286000D01*
Y3509624D01*
D02*
G37*
G36*
X2353924Y3441700D02*
X2311400D01*
Y3399176D01*
X2330353Y3407027D01*
X2346073Y3422747D01*
X2353924Y3441700D01*
D02*
G37*
G36*
X2286000D02*
X2243476D01*
X2251327Y3422747D01*
X2267047Y3407027D01*
X2286000Y3399176D01*
Y3441700D01*
D02*
G37*
G36*
X2018501Y3239848D02*
Y3197324D01*
X2061025D01*
X2053174Y3216278D01*
X2037455Y3231997D01*
X2018501Y3239848D01*
D02*
G37*
G36*
X1993101D02*
X1974148Y3231997D01*
X1958429Y3216278D01*
X1950578Y3197324D01*
X1993101D01*
Y3239848D01*
D02*
G37*
G36*
X2061025Y3171924D02*
X2018501D01*
Y3129400D01*
X2037455Y3137251D01*
X2053174Y3152971D01*
X2061025Y3171924D01*
D02*
G37*
G36*
X1993101D02*
X1950578D01*
X1958429Y3152971D01*
X1974148Y3137251D01*
X1993101Y3129400D01*
Y3171924D01*
D02*
G37*
G36*
X913601Y2477848D02*
Y2435324D01*
X956125D01*
X948274Y2454278D01*
X932555Y2469997D01*
X913601Y2477848D01*
D02*
G37*
G36*
X888201D02*
X869248Y2469997D01*
X853529Y2454278D01*
X845678Y2435324D01*
X888201D01*
Y2477848D01*
D02*
G37*
G36*
X956125Y2409924D02*
X913601D01*
Y2367400D01*
X932555Y2375251D01*
X948274Y2390971D01*
X956125Y2409924D01*
D02*
G37*
G36*
X888201D02*
X845678D01*
X853529Y2390971D01*
X869248Y2375251D01*
X888201Y2367400D01*
Y2409924D01*
D02*
G37*
G36*
X3682201Y2388948D02*
Y2346424D01*
X3724725D01*
X3716874Y2365378D01*
X3701155Y2381097D01*
X3682201Y2388948D01*
D02*
G37*
G36*
X3656801D02*
X3637848Y2381097D01*
X3622129Y2365378D01*
X3614278Y2346424D01*
X3656801D01*
Y2388948D01*
D02*
G37*
G36*
X3724725Y2321024D02*
X3682201D01*
Y2278500D01*
X3701155Y2286351D01*
X3716874Y2302071D01*
X3724725Y2321024D01*
D02*
G37*
G36*
X3656801D02*
X3614278D01*
X3622129Y2302071D01*
X3637848Y2286351D01*
X3656801Y2278500D01*
Y2321024D01*
D02*
G37*
G36*
X2424231Y2378900D02*
X2399769D01*
X2376142Y2372569D01*
X2354958Y2360338D01*
X2337662Y2343042D01*
X2325431Y2321858D01*
X2319100Y2298231D01*
Y2273769D01*
X2325431Y2250142D01*
X2337662Y2228958D01*
X2354958Y2211662D01*
X2376142Y2199431D01*
X2399769Y2193100D01*
X2424231D01*
X2447858Y2199431D01*
X2469042Y2211662D01*
X2486338Y2228958D01*
X2498569Y2250142D01*
X2504900Y2273769D01*
Y2298231D01*
X2498569Y2321858D01*
X2486338Y2343042D01*
X2469042Y2360338D01*
X2447858Y2372569D01*
X2424231Y2378900D01*
D02*
G37*
G36*
X1744900D02*
X1559100D01*
Y2193100D01*
X1744900D01*
Y2378900D01*
D02*
G37*
G36*
X316701Y2185748D02*
Y2143224D01*
X359225D01*
X351374Y2162178D01*
X335655Y2177897D01*
X316701Y2185748D01*
D02*
G37*
G36*
X291301D02*
X272348Y2177897D01*
X256629Y2162178D01*
X248778Y2143224D01*
X291301D01*
Y2185748D01*
D02*
G37*
G36*
X359225Y2117824D02*
X316701D01*
Y2075300D01*
X335655Y2083151D01*
X351374Y2098871D01*
X359225Y2117824D01*
D02*
G37*
G36*
X291301D02*
X248778D01*
X256629Y2098871D01*
X272348Y2083151D01*
X291301Y2075300D01*
Y2117824D01*
D02*
G37*
G36*
X3034501Y2033348D02*
Y1990824D01*
X3077025D01*
X3069174Y2009778D01*
X3053455Y2025497D01*
X3034501Y2033348D01*
D02*
G37*
G36*
X3009101D02*
X2990148Y2025497D01*
X2974429Y2009778D01*
X2966578Y1990824D01*
X3009101D01*
Y2033348D01*
D02*
G37*
G36*
X3077025Y1965424D02*
X3034501D01*
Y1922900D01*
X3053455Y1930751D01*
X3069174Y1946471D01*
X3077025Y1965424D01*
D02*
G37*
G36*
X3009101D02*
X2966578D01*
X2974429Y1946471D01*
X2990148Y1930751D01*
X3009101Y1922900D01*
Y1965424D01*
D02*
G37*
G36*
X1155700Y1642724D02*
Y1600200D01*
X1198224D01*
X1190373Y1619153D01*
X1174653Y1634873D01*
X1155700Y1642724D01*
D02*
G37*
G36*
X1130300D02*
X1111347Y1634873D01*
X1095627Y1619153D01*
X1087776Y1600200D01*
X1130300D01*
Y1642724D01*
D02*
G37*
G36*
X1198224Y1574800D02*
X1155700D01*
Y1532276D01*
X1174653Y1540127D01*
X1190373Y1555847D01*
X1198224Y1574800D01*
D02*
G37*
G36*
X1130300D02*
X1087776D01*
X1095627Y1555847D01*
X1111347Y1540127D01*
X1130300Y1532276D01*
Y1574800D01*
D02*
G37*
G36*
X2526501Y1385648D02*
Y1343124D01*
X2569025D01*
X2561174Y1362078D01*
X2545455Y1377797D01*
X2526501Y1385648D01*
D02*
G37*
G36*
X2501101D02*
X2482148Y1377797D01*
X2466429Y1362078D01*
X2458578Y1343124D01*
X2501101D01*
Y1385648D01*
D02*
G37*
G36*
X1688301Y1322148D02*
Y1279624D01*
X1730825D01*
X1722974Y1298578D01*
X1707255Y1314297D01*
X1688301Y1322148D01*
D02*
G37*
G36*
X1662901D02*
X1643948Y1314297D01*
X1628229Y1298578D01*
X1620378Y1279624D01*
X1662901D01*
Y1322148D01*
D02*
G37*
G36*
X2569025Y1317724D02*
X2526501D01*
Y1275200D01*
X2545455Y1283051D01*
X2561174Y1298771D01*
X2569025Y1317724D01*
D02*
G37*
G36*
X2501101D02*
X2458578D01*
X2466429Y1298771D01*
X2482148Y1283051D01*
X2501101Y1275200D01*
Y1317724D01*
D02*
G37*
G36*
X1730825Y1254224D02*
X1688301D01*
Y1211700D01*
X1707255Y1219551D01*
X1722974Y1235271D01*
X1730825Y1254224D01*
D02*
G37*
G36*
X1662901D02*
X1620378D01*
X1628229Y1235271D01*
X1643948Y1219551D01*
X1662901Y1211700D01*
Y1254224D01*
D02*
G37*
G36*
X3364701Y1207848D02*
Y1165324D01*
X3407225D01*
X3399374Y1184278D01*
X3383655Y1199997D01*
X3364701Y1207848D01*
D02*
G37*
G36*
X3339301D02*
X3320348Y1199997D01*
X3304629Y1184278D01*
X3296778Y1165324D01*
X3339301D01*
Y1207848D01*
D02*
G37*
G36*
X913601Y1169748D02*
Y1127224D01*
X956125D01*
X948274Y1146178D01*
X932555Y1161897D01*
X913601Y1169748D01*
D02*
G37*
G36*
X888201D02*
X869248Y1161897D01*
X853529Y1146178D01*
X845678Y1127224D01*
X888201D01*
Y1169748D01*
D02*
G37*
G36*
X3407225Y1139924D02*
X3364701D01*
Y1097400D01*
X3383655Y1105251D01*
X3399374Y1120971D01*
X3407225Y1139924D01*
D02*
G37*
G36*
X3339301D02*
X3296778D01*
X3304629Y1120971D01*
X3320348Y1105251D01*
X3339301Y1097400D01*
Y1139924D01*
D02*
G37*
G36*
X956125Y1101824D02*
X913601D01*
Y1059300D01*
X932555Y1067151D01*
X948274Y1082871D01*
X956125Y1101824D01*
D02*
G37*
G36*
X888201D02*
X845678D01*
X853529Y1082871D01*
X869248Y1067151D01*
X888201Y1059300D01*
Y1101824D01*
D02*
G37*
G36*
X3389315Y2557780D02*
X3367085D01*
X3346547Y2549273D01*
X3330827Y2533553D01*
X3322320Y2513015D01*
Y2490785D01*
X3326405Y2480923D01*
Y1761354D01*
X3115108Y1550058D01*
X3105247Y1545973D01*
X3089527Y1530253D01*
X3085442Y1520392D01*
X2569346Y1004295D01*
X2281577D01*
X2271715Y1008380D01*
X2249485D01*
X2239623Y1004295D01*
X1943847D01*
Y1293320D01*
X1952373Y1301847D01*
X1960880Y1322385D01*
Y1344615D01*
X1952373Y1365153D01*
X1936653Y1380873D01*
X1916115Y1389380D01*
X1893885D01*
X1873347Y1380873D01*
X1857627Y1365153D01*
X1849120Y1344615D01*
Y1322385D01*
X1857627Y1301847D01*
X1866153Y1293320D01*
Y1004295D01*
X1520054D01*
X1321458Y1202892D01*
X1317373Y1212753D01*
X1301653Y1228473D01*
X1291792Y1232558D01*
X750295Y1774054D01*
Y1960223D01*
X754380Y1970085D01*
Y1992315D01*
X745873Y2012853D01*
X730153Y2028573D01*
X709615Y2037080D01*
X687385D01*
X666847Y2028573D01*
X651127Y2012853D01*
X642620Y1992315D01*
Y1970085D01*
X646705Y1960223D01*
Y1752600D01*
X650647Y1732779D01*
X661875Y1715975D01*
X1218542Y1159308D01*
X1222627Y1149447D01*
X1238347Y1133727D01*
X1248208Y1129642D01*
X1461975Y915875D01*
X1478779Y904647D01*
X1498600Y900705D01*
X2239623D01*
X2249485Y896620D01*
X2271715D01*
X2281577Y900705D01*
X2590800D01*
X2610621Y904647D01*
X2627425Y915875D01*
X3158692Y1447142D01*
X3168553Y1451227D01*
X3184273Y1466947D01*
X3188358Y1476808D01*
X3414825Y1703275D01*
X3426053Y1720079D01*
X3429995Y1739900D01*
Y2480923D01*
X3434080Y2490785D01*
Y2513015D01*
X3425573Y2533553D01*
X3409853Y2549273D01*
X3389315Y2557780D01*
D02*
G37*
G36*
X2082001Y712548D02*
Y670024D01*
X2124525D01*
X2116674Y688978D01*
X2100955Y704697D01*
X2082001Y712548D01*
D02*
G37*
G36*
X2056601D02*
X2037648Y704697D01*
X2021929Y688978D01*
X2014078Y670024D01*
X2056601D01*
Y712548D01*
D02*
G37*
G36*
X2124525Y644624D02*
X2082001D01*
Y602100D01*
X2100955Y609951D01*
X2116674Y625671D01*
X2124525Y644624D01*
D02*
G37*
G36*
X2056601D02*
X2014078D01*
X2021929Y625671D01*
X2037648Y609951D01*
X2056601Y602100D01*
Y644624D01*
D02*
G37*
G36*
X3584822Y815400D02*
X3535178D01*
X3486144Y807634D01*
X3438928Y792293D01*
X3394694Y769754D01*
X3354531Y740574D01*
X3319426Y705469D01*
X3290246Y665306D01*
X3267707Y621072D01*
X3252366Y573856D01*
X3244600Y524822D01*
Y475178D01*
X3252366Y426144D01*
X3267707Y378928D01*
X3290246Y334694D01*
X3319426Y294531D01*
X3354531Y259426D01*
X3394694Y230246D01*
X3438928Y207707D01*
X3486144Y192366D01*
X3535178Y184600D01*
X3584822D01*
X3633856Y192366D01*
X3681072Y207707D01*
X3725306Y230246D01*
X3765469Y259426D01*
X3800574Y294531D01*
X3829754Y334694D01*
X3852293Y378928D01*
X3867634Y426144D01*
X3875400Y475178D01*
Y524822D01*
X3867634Y573856D01*
X3852293Y621072D01*
X3829754Y665306D01*
X3800574Y705469D01*
X3765469Y740574D01*
X3725306Y769754D01*
X3681072Y792293D01*
X3633856Y807634D01*
X3584822Y815400D01*
D02*
G37*
G36*
X524822D02*
X475178D01*
X426144Y807634D01*
X378928Y792293D01*
X334694Y769754D01*
X294531Y740574D01*
X259426Y705469D01*
X230246Y665306D01*
X207707Y621072D01*
X192366Y573856D01*
X184600Y524822D01*
Y475178D01*
X192366Y426144D01*
X207707Y378928D01*
X230246Y334694D01*
X259426Y294531D01*
X294531Y259426D01*
X334694Y230246D01*
X378928Y207707D01*
X426144Y192366D01*
X475178Y184600D01*
X524822D01*
X573856Y192366D01*
X621072Y207707D01*
X665306Y230246D01*
X705469Y259426D01*
X740574Y294531D01*
X769754Y334694D01*
X792293Y378928D01*
X807634Y426144D01*
X815400Y475178D01*
Y524822D01*
X807634Y573856D01*
X792293Y621072D01*
X769754Y665306D01*
X740574Y705469D01*
X705469Y740574D01*
X665306Y769754D01*
X621072Y792293D01*
X573856Y807634D01*
X524822Y815400D01*
D02*
G37*
%LPD*%
D30*
X1168400Y5842000D02*
X1615978D01*
X2044700Y5413278D01*
X1689100Y6089650D02*
Y6096000D01*
Y6089650D02*
X2057400Y5721350D01*
Y5715000D02*
Y5721350D01*
X1905000Y5168900D02*
X2171700Y4902200D01*
X2298700D01*
X2552700Y5156200D01*
Y6667500D01*
X1028700Y4025900D02*
Y6210300D01*
Y4025900D02*
X1600200Y3454400D01*
X1739900D01*
X927100Y3098800D02*
Y5969000D01*
X571500Y2743200D02*
X927100Y3098800D01*
X1905000Y952500D02*
Y1333500D01*
X517316Y5095400D02*
X736600Y5314684D01*
X382400Y5095400D02*
X517316D01*
X736600Y5314684D02*
Y6337300D01*
X287000Y5000000D02*
X382400Y5095400D01*
X736600Y6337300D02*
X1447800Y7048500D01*
X2311400D01*
D31*
X2197100Y5092700D02*
Y5816600D01*
Y6068498D01*
X1821913Y6443685D02*
X2197100Y6068498D01*
X287000Y5400000D02*
X487000Y5200000D01*
X1821913Y6443685D02*
X1993900Y6615672D01*
X1445862Y6443685D02*
X1821913D01*
X1993900Y6615672D02*
Y6616700D01*
D32*
X2514600Y6858000D02*
X2882900D01*
X1993900Y6616700D02*
X2273300D01*
X2514600Y6858000D01*
X1905000Y952500D02*
X2260600D01*
X1498600D02*
X1905000D01*
X3378200Y1739900D02*
Y2501900D01*
X3136900Y1498600D02*
X3378200Y1739900D01*
X2260600Y952500D02*
X2590800D01*
X3136900Y1498600D01*
X1270000Y1181100D02*
X1498600Y952500D01*
X698500Y1752600D02*
Y1981200D01*
Y1752600D02*
X1270000Y1181100D01*
D33*
X1532000Y7753400D02*
D03*
X2032000D02*
D03*
D34*
X2532000D02*
D03*
D35*
X500000Y500000D02*
D03*
X3560000Y8300000D02*
D03*
Y500000D02*
D03*
X500000Y8300000D02*
D03*
D36*
X1652000Y2286000D02*
D03*
D37*
X2412000D02*
D03*
D38*
X487000Y6200000D02*
D03*
D39*
Y6000000D02*
D03*
Y5800000D02*
D03*
Y5600000D02*
D03*
Y5400000D02*
D03*
Y5200000D02*
D03*
Y5000000D02*
D03*
Y4800000D02*
D03*
X287000Y6200000D02*
D03*
Y6000000D02*
D03*
Y5800000D02*
D03*
Y5600000D02*
D03*
Y5400000D02*
D03*
Y5200000D02*
D03*
Y5000000D02*
D03*
Y4800000D02*
D03*
Y4600000D02*
D03*
X487000D02*
D03*
Y4400000D02*
D03*
X287000D02*
D03*
D40*
X3669501Y2333724D02*
D03*
X3021801Y1978124D02*
D03*
X3352001Y1152624D02*
D03*
X2513801Y1330424D02*
D03*
X2069301Y657324D02*
D03*
X1675601Y1266924D02*
D03*
X900901Y1114524D02*
D03*
X1143000Y1587500D02*
D03*
X304001Y2130524D02*
D03*
X900901Y2422624D02*
D03*
X2298700Y3454400D02*
D03*
X2005801Y3184624D02*
D03*
X2636141Y5093500D02*
D03*
X3377401Y5445224D02*
D03*
X2832100Y5448300D02*
D03*
X1650201Y6753324D02*
D03*
X2640801Y6067524D02*
D03*
X2424901Y5711924D02*
D03*
X1916901Y5724624D02*
D03*
X1332701Y5115024D02*
D03*
X100801Y5203924D02*
D03*
X786601Y5178524D02*
D03*
X1231101Y6562824D02*
D03*
X1548601Y7172424D02*
D03*
X1866101Y7362924D02*
D03*
X2412201Y7147024D02*
D03*
X2133600Y6705600D02*
D03*
X3428201Y6613624D02*
D03*
X2794000Y6629400D02*
D03*
X2044700Y5413277D02*
D03*
X2197100Y6845300D02*
D03*
Y5092700D02*
D03*
X2057400Y5715000D02*
D03*
X1905000Y5168900D02*
D03*
X2552700Y6667500D02*
D03*
X1168400Y5842000D02*
D03*
X1689100Y6096000D02*
D03*
X2882900Y6858000D02*
D03*
X2197100Y5816600D02*
D03*
X1028700Y6210300D02*
D03*
X1739900Y3454400D02*
D03*
X927100Y5969000D02*
D03*
X571500Y2743200D02*
D03*
X1905000Y1333500D02*
D03*
X3378200Y2501900D02*
D03*
X3136900Y1498600D02*
D03*
X2260600Y952500D02*
D03*
X1270000Y1181100D02*
D03*
X698500Y1981200D02*
D03*
X1445862Y6443685D02*
D03*
X1993900Y6616700D02*
D03*
X2311400Y7048500D02*
D03*
X280000Y500000D02*
D03*
X360000Y340000D02*
D03*
X500000Y280000D02*
D03*
X640000Y340000D02*
D03*
X720000Y500000D02*
D03*
X640000Y660000D02*
D03*
X500000Y720000D02*
D03*
X360000Y660000D02*
D03*
X3340000Y8300000D02*
D03*
X3420000Y8140000D02*
D03*
X3560000Y8080000D02*
D03*
X3700000Y8140000D02*
D03*
X3780000Y8300000D02*
D03*
X3700000Y8460000D02*
D03*
X3560000Y8520000D02*
D03*
X3420000Y8460000D02*
D03*
X3340000Y500000D02*
D03*
X3420000Y340000D02*
D03*
X3560000Y280000D02*
D03*
X3700000Y340000D02*
D03*
X3780000Y500000D02*
D03*
X3700000Y660000D02*
D03*
X3560000Y720000D02*
D03*
X3420000Y660000D02*
D03*
X280000Y8300000D02*
D03*
X360000Y8140000D02*
D03*
X500000Y8080000D02*
D03*
X640000Y8140000D02*
D03*
X720000Y8300000D02*
D03*
X640000Y8460000D02*
D03*
X500000Y8520000D02*
D03*
X360000Y8460000D02*
D03*
%TF.MD5,2150e054e92809fd1c8eec3d72b661fe*%
M02*
