%TF.GenerationSoftware,Altium Limited,Altium Designer,23.10.1 (27)*%
G04 Layer_Color=0*
%FSLAX45Y45*%
%MOMM*%
%TF.SameCoordinates,3DF52466-FF79-41BE-B245-B35B28900F9A*%
%TF.FilePolarity,Positive*%
%TF.FileFunction,Plated,1,2,PTH,Drill*%
%TF.Part,Single*%
G01*
G75*
%TA.AperFunction,ComponentDrill*%
%ADD66C,1.40000*%
%ADD67C,3.20000*%
%ADD68C,0.85000*%
%ADD69C,0.90000*%
%TA.AperFunction,ViaDrill,NotFilled*%
%ADD70C,0.40640*%
D66*
X1532000Y7753400D02*
D03*
X2032000D02*
D03*
X2532000D02*
D03*
D67*
X500000Y500000D02*
D03*
X3560000Y8300000D02*
D03*
Y500000D02*
D03*
X500000Y8300000D02*
D03*
D68*
X1652000Y2286000D02*
D03*
X2412000D02*
D03*
D69*
X487000Y6200000D02*
D03*
Y6000000D02*
D03*
Y5800000D02*
D03*
Y5600000D02*
D03*
Y5400000D02*
D03*
Y5200000D02*
D03*
Y5000000D02*
D03*
Y4800000D02*
D03*
X287000Y6200000D02*
D03*
Y6000000D02*
D03*
Y5800000D02*
D03*
Y5600000D02*
D03*
Y5400000D02*
D03*
Y5200000D02*
D03*
Y5000000D02*
D03*
Y4800000D02*
D03*
Y4600000D02*
D03*
X487000D02*
D03*
Y4400000D02*
D03*
X287000D02*
D03*
D70*
X3669501Y2333724D02*
D03*
X3021801Y1978124D02*
D03*
X3352001Y1152624D02*
D03*
X2513801Y1330424D02*
D03*
X2069301Y657324D02*
D03*
X1675601Y1266924D02*
D03*
X900901Y1114524D02*
D03*
X1143000Y1587500D02*
D03*
X304001Y2130524D02*
D03*
X900901Y2422624D02*
D03*
X2298700Y3454400D02*
D03*
X2005801Y3184624D02*
D03*
X2636141Y5093500D02*
D03*
X3377401Y5445224D02*
D03*
X2832100Y5448300D02*
D03*
X1650201Y6753324D02*
D03*
X2640801Y6067524D02*
D03*
X2424901Y5711924D02*
D03*
X1916901Y5724624D02*
D03*
X1332701Y5115024D02*
D03*
X100801Y5203924D02*
D03*
X786601Y5178524D02*
D03*
X1231101Y6562824D02*
D03*
X1548601Y7172424D02*
D03*
X1866101Y7362924D02*
D03*
X2412201Y7147024D02*
D03*
X2133600Y6705600D02*
D03*
X3428201Y6613624D02*
D03*
X2794000Y6629400D02*
D03*
X2044700Y5413277D02*
D03*
X2197100Y6845300D02*
D03*
Y5092700D02*
D03*
X2057400Y5715000D02*
D03*
X1905000Y5168900D02*
D03*
X2552700Y6667500D02*
D03*
X1168400Y5842000D02*
D03*
X1689100Y6096000D02*
D03*
X2882900Y6858000D02*
D03*
X2197100Y5816600D02*
D03*
X1028700Y6210300D02*
D03*
X1739900Y3454400D02*
D03*
X927100Y5969000D02*
D03*
X571500Y2743200D02*
D03*
X1905000Y1333500D02*
D03*
X3378200Y2501900D02*
D03*
X3136900Y1498600D02*
D03*
X2260600Y952500D02*
D03*
X1270000Y1181100D02*
D03*
X698500Y1981200D02*
D03*
X1445862Y6443685D02*
D03*
X1993900Y6616700D02*
D03*
X2311400Y7048500D02*
D03*
X280000Y500000D02*
D03*
X360000Y340000D02*
D03*
X500000Y280000D02*
D03*
X640000Y340000D02*
D03*
X720000Y500000D02*
D03*
X640000Y660000D02*
D03*
X500000Y720000D02*
D03*
X360000Y660000D02*
D03*
X3340000Y8300000D02*
D03*
X3420000Y8140000D02*
D03*
X3560000Y8080000D02*
D03*
X3700000Y8140000D02*
D03*
X3780000Y8300000D02*
D03*
X3700000Y8460000D02*
D03*
X3560000Y8520000D02*
D03*
X3420000Y8460000D02*
D03*
X3340000Y500000D02*
D03*
X3420000Y340000D02*
D03*
X3560000Y280000D02*
D03*
X3700000Y340000D02*
D03*
X3780000Y500000D02*
D03*
X3700000Y660000D02*
D03*
X3560000Y720000D02*
D03*
X3420000Y660000D02*
D03*
X280000Y8300000D02*
D03*
X360000Y8140000D02*
D03*
X500000Y8080000D02*
D03*
X640000Y8140000D02*
D03*
X720000Y8300000D02*
D03*
X640000Y8460000D02*
D03*
X500000Y8520000D02*
D03*
X360000Y8460000D02*
D03*
%TF.MD5,658604f2e15133b2af1a4deba6cc0e41*%
M02*
